<svg xmlns="http://www.w3.org/2000/svg" viewBox="0 0 213.99 44.04"><defs><style>.cls-1{fill:#b27347;stroke:#b27347;stroke-miterlimit:10;}</style></defs><g id="Capa_2" data-name="Capa 2"><g id="Capa_1-2" data-name="Capa 1"><path class="cls-1" d="M27.63,29a14.45,14.45,0,1,1-.13-13.78L26,16.15a12.62,12.62,0,1,0-11,18.75,12.92,12.92,0,0,0,11.27-6.8Z"/><path class="cls-1" d="M47.27,36V33.29a9.43,9.43,0,0,1-7.61,3.31,10.7,10.7,0,0,1,0-21.39,9.41,9.41,0,0,1,7.61,3.32V15.64h1.79V36Zm0-5.4V21.29a8.34,8.34,0,0,0-7.61-4.37,9,9,0,0,0,0,18A8.38,8.38,0,0,0,47.27,30.57Z"/><path class="cls-1" d="M52.88,32.56A14.06,14.06,0,0,0,61,34.9c2.43,0,6.94-.76,6.94-4,0-2.8-3.53-3.44-7-4.12C56.71,26,52.54,25.12,52.54,21c0-4.34,4.73-5.75,8.42-5.75,2.85,0,5.58.64,7.49,2.47L67.26,19a9,9,0,0,0-6.3-2c-2.89,0-6.59,1-6.59,4,0,2.8,3.41,3.35,6.85,4,4.21.77,8.51,1.7,8.51,5.91,0,4.64-5.7,5.74-8.77,5.74A16.44,16.44,0,0,1,52,34Z"/><path class="cls-1" d="M89.88,36V33.29a9.45,9.45,0,0,1-7.61,3.31,10.7,10.7,0,0,1,0-21.39,9.42,9.42,0,0,1,7.61,3.32V15.64h1.79V36Zm0-5.4V21.29a8.35,8.35,0,0,0-7.61-4.37,9,9,0,0,0,0,18A8.39,8.39,0,0,0,89.88,30.57Z"/><path class="cls-1" d="M119.09,8,132.4,35.5l-1.57.76-2.77-5.69H109l-2.76,5.69-1.58-.76L118,8Zm8.12,20.89-8.59-18h-.17l-8.59,18ZM119.43,5.14H117.3l3-4.64h2.81Z"/><path class="cls-1" d="M138.44,40.13a8.32,8.32,0,0,0,5.06,1.7c4.85,0,7.65-3.4,7.65-7.69v-.85a9.45,9.45,0,0,1-7.61,3.31,10.7,10.7,0,0,1,0-21.39,9.42,9.42,0,0,1,7.61,3.32V15.64h1.79v18.5c0,5.23-3.45,9.4-9.44,9.4a10.75,10.75,0,0,1-5.83-1.87Zm12.71-9.56V21.29a8.34,8.34,0,0,0-7.61-4.37,9,9,0,0,0,0,18A8.38,8.38,0,0,0,151.15,30.57Z"/><path class="cls-1" d="M173.86,36V33.29a9.45,9.45,0,0,1-7.61,3.31,10.7,10.7,0,0,1,0-21.39,9.42,9.42,0,0,1,7.61,3.32V15.64h1.78V36Zm0-5.4V21.29a8.35,8.35,0,0,0-7.61-4.37,9,9,0,0,0,0,18A8.39,8.39,0,0,0,173.86,30.57Z"/><path class="cls-1" d="M177.55,15.64h2.77v-6h1.78v6h10.42v1.7H182.1V28.61c0,4,1.66,6.29,5.28,6.29a9.52,9.52,0,0,0,4.85-1.32L193,35a11,11,0,0,1-5.65,1.57c-4.81,0-7.06-3-7.06-8V17.34h-2.77Z"/><path class="cls-1" d="M211.7,36V33.29a9.45,9.45,0,0,1-7.61,3.31,10.7,10.7,0,0,1,0-21.39,9.42,9.42,0,0,1,7.61,3.32V15.64h1.79V36Zm0-5.4V21.29a8.34,8.34,0,0,0-7.61-4.37,9,9,0,0,0,0,18A8.38,8.38,0,0,0,211.7,30.57Z"/></g></g></svg>