<svg xmlns="http://www.w3.org/2000/svg" viewBox="0 0 275.6 29.83"><defs><style>.cls-1{fill:#b27347;stroke:#b27347;stroke-miterlimit:10;}</style></defs><g id="Capa_2" data-name="Capa 2"><g id="Capa_1-2" data-name="Capa 1"><path class="cls-1" d="M27.63,21.72A14.45,14.45,0,1,1,27.5,7.94L26,8.88a12.55,12.55,0,0,0-23.64,6A12.67,12.67,0,0,0,14.92,27.63a12.92,12.92,0,0,0,11.27-6.8Z"/><path class="cls-1" d="M47.28,28.7V26a9.47,9.47,0,0,1-7.62,3.31,10.7,10.7,0,0,1,0-21.39,9.44,9.44,0,0,1,7.62,3.32V8.37h1.78V28.7Zm0-5.41V14a8.37,8.37,0,0,0-7.62-4.38,8.89,8.89,0,0,0-8.63,9,8.89,8.89,0,0,0,8.63,9A8.4,8.4,0,0,0,47.28,23.29Z"/><path class="cls-1" d="M52.88,25.29A14.06,14.06,0,0,0,61,27.63c2.43,0,6.94-.76,6.94-4,0-2.8-3.53-3.44-7-4.12-4.17-.77-8.34-1.62-8.34-5.79,0-4.33,4.73-5.74,8.42-5.74,2.85,0,5.58.64,7.49,2.47l-1.19,1.27a9,9,0,0,0-6.3-2c-2.89,0-6.59,1-6.59,4,0,2.81,3.41,3.36,6.85,4,4.21.77,8.51,1.7,8.51,5.91,0,4.64-5.7,5.74-8.77,5.74a16.44,16.44,0,0,1-9-2.59Z"/><path class="cls-1" d="M89.88,28.7V26a9.45,9.45,0,0,1-7.61,3.31,10.7,10.7,0,0,1,0-21.39,9.42,9.42,0,0,1,7.61,3.32V8.37h1.79V28.7Zm0-5.41V14a8.35,8.35,0,0,0-7.61-4.38,8.89,8.89,0,0,0-8.63,9,8.89,8.89,0,0,0,8.63,9A8.37,8.37,0,0,0,89.88,23.29Z"/><path class="cls-1" d="M119.09.71,132.4,28.23l-1.57.76-2.77-5.7H109L106.25,29l-1.57-.76L118,.71Zm8.12,20.88-8.59-18h-.17l-8.59,18Z"/><path class="cls-1" d="M134.48,28.7V8.37h1.79v3a10.36,10.36,0,0,1,8.25-3.45c4.17,0,7,1.92,8.25,5.19,1.53-3.32,4.8-5.19,9-5.19,5.79,0,9,3.66,9,9.4V28.7h-1.78V17.51c0-5.31-2.47-7.87-7.4-7.87-3.87,0-8,2.3-8,8.13V28.7h-1.78V17.51c0-5.31-2.47-7.87-7.4-7.87-3.62,0-6.72,1.75-8,4.43V28.7Z"/><path class="cls-1" d="M191.63,28.7V26A9.45,9.45,0,0,1,184,29.33a10.7,10.7,0,0,1,0-21.39,9.42,9.42,0,0,1,7.61,3.32V8.37h1.79V28.7Zm0-5.41V14A8.35,8.35,0,0,0,184,9.64a8.89,8.89,0,0,0-8.63,9,8.89,8.89,0,0,0,8.63,9A8.37,8.37,0,0,0,191.63,23.29Z"/><path class="cls-1" d="M195.33,8.37h2.76v-6h1.79v6H210.3v1.7H199.88V21.34c0,3.95,1.66,6.29,5.27,6.29A9.49,9.49,0,0,0,210,26.31l.81,1.45a11,11,0,0,1-5.66,1.57c-4.8,0-7.06-3-7.06-8V10.07h-2.76Z"/><path class="cls-1" d="M214.34.71a1.89,1.89,0,0,1,1.87,1.87,1.88,1.88,0,1,1-3.75,0A1.89,1.89,0,0,1,214.34.71ZM218.89,29c-3.45,0-5.45-2.76-5.45-6.72V8.37h1.79v13.9c0,3,1.27,5,3.66,5Z"/><path class="cls-1" d="M221.18,25.29a14,14,0,0,0,8.08,2.34c2.43,0,6.93-.76,6.93-4,0-2.8-3.53-3.44-7-4.12-4.17-.77-8.34-1.62-8.34-5.79,0-4.33,4.72-5.74,8.42-5.74,2.85,0,5.57.64,7.49,2.47l-1.2,1.27a9,9,0,0,0-6.29-2c-2.89,0-6.59,1-6.59,4,0,2.81,3.4,3.36,6.85,4,4.21.77,8.5,1.7,8.5,5.91,0,4.64-5.7,5.74-8.76,5.74a16.4,16.4,0,0,1-9-2.59Z"/><path class="cls-1" d="M239.17,8.37h2.76v-6h1.79v6h10.42v1.7H243.72V21.34c0,3.95,1.66,6.29,5.27,6.29a9.49,9.49,0,0,0,4.85-1.32l.81,1.45A11,11,0,0,1,249,29.33c-4.8,0-7.06-3-7.06-8V10.07h-2.76Z"/><path class="cls-1" d="M273.31,28.7V26a9.45,9.45,0,0,1-7.61,3.31,10.7,10.7,0,0,1,0-21.39,9.42,9.42,0,0,1,7.61,3.32V8.37h1.79V28.7Zm0-5.41V14a8.35,8.35,0,0,0-7.61-4.38,8.89,8.89,0,0,0-8.63,9,8.89,8.89,0,0,0,8.63,9A8.37,8.37,0,0,0,273.31,23.29Z"/></g></g></svg>