<svg xmlns="http://www.w3.org/2000/svg" viewBox="0 0 536.49 126.09"><defs><style>.cls-1{fill:#b27347;stroke:#b27347;stroke-width:0.25px;}.cls-1,.cls-2{stroke-miterlimit:10;}.cls-2{fill:#b2cb9f;stroke:#b2cb9f;stroke-width:0.5px;}</style></defs><g id="Capa_2" data-name="Capa 2"><g id="Capa_1-2" data-name="Capa 1"><path class="cls-1" d="M181.77,126V99h1.76v2.85A9.33,9.33,0,0,1,191,98.54a10.55,10.55,0,0,1,0,21.09,9.3,9.3,0,0,1-7.51-3.27V126Zm17.78-16.9a8.76,8.76,0,0,0-8.51-8.85,8.14,8.14,0,0,0-7.51,4.32v9.14A8.18,8.18,0,0,0,191,118,8.77,8.77,0,0,0,199.55,109.07Z"/><path class="cls-1" d="M221.44,119v-2.65a9.3,9.3,0,0,1-7.51,3.27,10.55,10.55,0,0,1,0-21.09,9.33,9.33,0,0,1,7.51,3.27V99h1.76V119Zm0-5.33v-9.14a8.24,8.24,0,0,0-7.51-4.32,8.88,8.88,0,0,0,0,17.74A8.28,8.28,0,0,0,221.44,113.68Z"/><path class="cls-1" d="M226.55,119V99h1.76v2.73a8.44,8.44,0,0,1,6.88-3.15c5,0,7.92,2.94,8.39,7.59h-1.81c-.46-3.94-2.72-5.83-6.79-5.83a7.24,7.24,0,0,0-6.67,4.16V119Z"/><path class="cls-1" d="M263.24,119v-2.65a9.3,9.3,0,0,1-7.51,3.27,10.55,10.55,0,0,1,0-21.09,9.33,9.33,0,0,1,7.51,3.27V99H265V119Zm0-5.33v-9.14a8.23,8.23,0,0,0-7.51-4.32,8.88,8.88,0,0,0,0,17.74A8.27,8.27,0,0,0,263.24,113.68Z"/><path class="cls-1" d="M297.66,99.21l-9.22,20.26H287.1l-9.23-20.26,1.51-.67,8.39,18.37,8.38-18.37Z"/><path class="cls-1" d="M301.48,91.42a1.85,1.85,0,1,1-1.85,1.84A1.85,1.85,0,0,1,301.48,91.42ZM306,119.3c-3.4,0-5.37-2.73-5.37-6.63V99h1.76v13.71c0,3,1.26,5,3.61,5Z"/><path class="cls-1" d="M325.92,99.21l-9.22,20.26h-1.34l-9.23-20.26,1.51-.67L316,116.91l8.38-18.37Z"/><path class="cls-1" d="M329.74,91.42a1.85,1.85,0,1,1-1.85,1.84A1.85,1.85,0,0,1,329.74,91.42Zm4.49,27.88c-3.4,0-5.37-2.73-5.37-6.63V99h1.76v13.71c0,3,1.26,5,3.61,5Z"/><path class="cls-1" d="M336.91,119V99h1.76v2.73a8.42,8.42,0,0,1,6.88-3.15c5,0,7.92,2.94,8.38,7.59h-1.8c-.46-3.94-2.73-5.83-6.79-5.83a7.23,7.23,0,0,0-6.67,4.16V119Z"/><path class="cls-1" d="M385,113.76l1.3,1a10.28,10.28,0,0,1-8.84,4.82c-6.5,0-10.53-4.73-10.53-10.56a10.11,10.11,0,1,1,20.21,0,12.48,12.48,0,0,1-.08,1.26H368.86A8.5,8.5,0,0,0,377.5,118,8.65,8.65,0,0,0,385,113.76Zm-16.27-5.11h16.65a8.64,8.64,0,0,0-8.34-8.43C372.67,100.22,369,104,368.77,108.65Z"/><path class="cls-1" d="M390,119V99h1.76v3a10.21,10.21,0,0,1,8.14-3.4c5.7,0,8.84,3.61,8.84,9.27V119H407V108c0-5.24-2.43-7.76-7.29-7.76-3.57,0-6.63,1.72-7.93,4.36V119Z"/><path class="cls-1" d="M425.67,99h6.12v1.68h-6.12V119h-1.76V100.64h-2.73V99h2.73c0-4.57,2.18-7.75,7.84-7.75v1.67C427.1,92.88,425.71,95.31,425.67,99Z"/><path class="cls-1" d="M449.4,119v-2.65a9.28,9.28,0,0,1-7.5,3.27,10.55,10.55,0,0,1,0-21.09,9.31,9.31,0,0,1,7.5,3.27V99h1.76V119Zm0-5.33v-9.14a8.21,8.21,0,0,0-7.5-4.32,8.88,8.88,0,0,0,0,17.74A8.26,8.26,0,0,0,449.4,113.68Z"/><path class="cls-1" d="M454.52,119V99h1.76v3a10.2,10.2,0,0,1,8.13-3.4c4.11,0,6.92,1.89,8.14,5.12,1.51-3.27,4.74-5.12,8.85-5.12,5.7,0,8.84,3.61,8.84,9.27V119h-1.76V108c0-5.24-2.43-7.76-7.29-7.76-3.82,0-7.93,2.27-7.93,8V119H471.5V108c0-5.24-2.43-7.76-7.3-7.76-3.56,0-6.62,1.72-7.92,4.36V119Z"/><path class="cls-1" d="M495.69,91.42a1.85,1.85,0,1,1-1.84,1.84A1.86,1.86,0,0,1,495.69,91.42Zm4.49,27.88c-3.4,0-5.37-2.73-5.37-6.63V99h1.76v13.71c0,3,1.26,5,3.61,5Z"/><path class="cls-1" d="M502.78,91.83h1.76v20.84c0,3,1.26,5,3.61,5v1.68c-3.4,0-5.37-2.73-5.37-6.63Z"/><path class="cls-1" d="M511.71,91.42a1.85,1.85,0,1,1-1.85,1.84A1.85,1.85,0,0,1,511.71,91.42Zm4.48,27.88c-3.39,0-5.36-2.73-5.36-6.63V99h1.76v13.71c0,3,1.26,5,3.6,5Z"/><path class="cls-1" d="M534.52,119v-2.65a9.3,9.3,0,0,1-7.51,3.27,10.55,10.55,0,0,1,0-21.09,9.33,9.33,0,0,1,7.51,3.27V99h1.76V119Zm0-5.33v-9.14a8.23,8.23,0,0,0-7.51-4.32A8.88,8.88,0,0,0,527,118,8.27,8.27,0,0,0,534.52,113.68Z"/><path class="cls-2" d="M47.32,77.52H.25V29H47.32v3H3.4V65H47.32v3H3.4v6.52H47.32Z"/><path class="cls-2" d="M51.44,71.52c3.9,2.85,9.3,4.12,14.24,4.12,4.28,0,12.22-1.34,12.22-7.12,0-4.94-6.22-6.07-12.37-7.27-7.34-1.34-14.69-2.84-14.69-10.19,0-7.64,8.32-10.12,14.84-10.12,5,0,9.82,1.13,13.2,4.35l-2.1,2.25c-2.78-2.62-6.82-3.6-11.1-3.6-5.09,0-11.61,1.72-11.61,7.12,0,4.95,6,5.92,12.06,7,7.42,1.35,15,3,15,10.41,0,8.17-10,10.12-15.44,10.12a29,29,0,0,1-15.89-4.57Z"/><path class="cls-2" d="M84.27,90V41.69h3.15v5.1c3-3.75,7.72-5.85,13.42-5.85a18.85,18.85,0,0,1,0,37.7c-5.7,0-10.42-2.1-13.42-5.84V90Zm31.78-30.21c0-8.61-6.89-15.81-15.21-15.81-6,0-11.25,3.07-13.42,7.72V68c2.17,4.57,7.42,7.64,13.42,7.64C109.16,75.64,116.05,68.45,116.05,59.75Z"/><path class="cls-2" d="M153.68,77.52V72.8c-3,3.74-7.72,5.84-13.42,5.84a18.85,18.85,0,0,1,0-37.7c5.7,0,10.42,2.1,13.42,5.85v-5.1h3.15V77.52Zm0-9.52V51.66c-2.25-4.65-7.5-7.72-13.42-7.72-8.32,0-15.21,7.2-15.21,15.81s6.89,15.89,15.21,15.89C146.18,75.64,151.43,72.57,153.68,68Z"/><path class="cls-2" d="M192.8,51.88a15.72,15.72,0,1,0-13.64,23.76,15.59,15.59,0,0,0,13.72-8.17l2.62,1.58a18.69,18.69,0,0,1-16.34,9.59,18.85,18.85,0,1,1,16.27-28.4Z"/><path class="cls-2" d="M201.2,28.2a3.3,3.3,0,1,1-3.3,3.3A3.33,3.33,0,0,1,201.2,28.2Zm8,49.84c-6.07,0-9.59-4.87-9.59-11.84V41.69h3.14V66.2c0,5.32,2.25,8.84,6.45,8.84Z"/><path class="cls-2" d="M227.43,78.64a18.85,18.85,0,1,1,18.89-18.89A18.89,18.89,0,0,1,227.43,78.64Zm0-34.7A15.85,15.85,0,1,0,243.1,59.75,15.87,15.87,0,0,0,227.43,43.94Z"/><path class="cls-2" d="M248.72,71.52c3.9,2.85,9.29,4.12,14.24,4.12,4.27,0,12.22-1.34,12.22-7.12,0-4.94-6.22-6.07-12.37-7.27-7.34-1.34-14.69-2.84-14.69-10.19,0-7.64,8.32-10.12,14.84-10.12,5,0,9.82,1.13,13.19,4.35l-2.1,2.25c-2.77-2.62-6.82-3.6-11.09-3.6-5.1,0-11.62,1.72-11.62,7.12,0,4.95,6,5.92,12.07,7,7.42,1.35,15,3,15,10.41,0,8.17-10,10.12-15.44,10.12a29,29,0,0,1-15.89-4.57Z"/><path class="cls-2" d="M304.34,41.69h10.94v3H304.34V77.52h-3.15V44.69h-4.87v-3h4.87c.07-8.17,3.9-13.86,14-13.86v3C306.88,30.82,304.41,35.17,304.34,41.69ZM319.4,29h3.15V66.2c0,5.32,2.25,8.84,6.44,8.84v3c-6.07,0-9.59-4.87-9.59-11.84Z"/><path class="cls-2" d="M365.2,68.15,367.52,70a18.39,18.39,0,0,1-15.81,8.62c-11.62,0-18.82-8.47-18.82-18.89S341,40.94,351,40.94,369,49.41,369,59.75a21.34,21.34,0,0,1-.15,2.25h-32.6a15.17,15.17,0,0,0,15.44,13.64A15.49,15.49,0,0,0,365.2,68.15ZM336.12,59h29.75C365.5,50.76,359,43.94,351,43.94,343.09,43.94,336.49,50.76,336.12,59Z"/><path class="cls-2" d="M369.55,40.94l15.21,16.27L400,40.94l2.17,2.18L386.86,59.46l15.51,16.41L400.2,78,384.76,61.7,369.47,78l-2.17-2.17,15.36-16.41L367.37,43.12Z"/><path class="cls-2" d="M407.7,28.2a3.3,3.3,0,1,1-3.3,3.3A3.32,3.32,0,0,1,407.7,28.2Zm8,49.84c-6.07,0-9.6-4.87-9.6-11.84V41.69h3.15V66.2c0,5.32,2.25,8.84,6.45,8.84Z"/><path class="cls-2" d="M419,77.52V29h3.15V46.79c3-3.75,7.72-5.85,13.42-5.85a18.85,18.85,0,0,1,0,37.7c-5.7,0-10.42-2.1-13.42-5.84v4.72Zm31.78-17.77c0-8.61-6.89-15.81-15.21-15.81-6,0-11.24,3.07-13.42,7.72V68c2.18,4.57,7.42,7.64,13.42,7.64C443.9,75.64,450.79,68.45,450.79,59.75Z"/><path class="cls-2" d="M459,29h3.15V66.2c0,5.32,2.25,8.84,6.44,8.84v3C462.56,78,459,73.17,459,66.2Z"/><path class="cls-2" d="M500.34,68.15,502.66,70a18.39,18.39,0,0,1-15.81,8.62c-11.62,0-18.82-8.47-18.82-18.89s8.1-18.81,18.07-18.81,18.06,8.47,18.06,18.81A21.34,21.34,0,0,1,504,62h-32.6a15.17,15.17,0,0,0,15.44,13.64A15.49,15.49,0,0,0,500.34,68.15ZM471.26,59H501c-.37-8.25-6.89-15.07-14.91-15.07S471.63,50.76,471.26,59Z"/><path class="cls-2" d="M506.56,71.52c3.9,2.85,9.29,4.12,14.24,4.12,4.27,0,12.22-1.34,12.22-7.12,0-4.94-6.22-6.07-12.37-7.27C513.31,59.91,506,58.41,506,51.06c0-7.64,8.32-10.12,14.84-10.12,5,0,9.82,1.13,13.19,4.35l-2.1,2.25c-2.77-2.62-6.82-3.6-11.09-3.6-5.1,0-11.62,1.72-11.62,7.12,0,4.95,6,5.92,12.07,7,7.42,1.35,15,3,15,10.41,0,8.17-10,10.12-15.44,10.12a28.94,28.94,0,0,1-15.89-4.57Z"/><path d="M11.15,5.83a5.85,5.85,0,0,1-6,5.79H.59V0H5.2A5.84,5.84,0,0,1,11.15,5.83Zm-.71,0A5.17,5.17,0,0,0,5.18.71H1.29V10.94H5.2A5.16,5.16,0,0,0,10.44,5.83Z"/><path d="M33,0V.71H26.2V5.34h6V6h-6v4.91h7v.68H25.5V0Z"/><path d="M50.88.73c-1.84,0-3,.76-3,2,0,3.53,6.81,1.71,6.77,6,0,1.79-1.6,3-4,3A6.13,6.13,0,0,1,46.47,10l.36-.61a5.5,5.5,0,0,0,3.78,1.57c2,0,3.27-.86,3.27-2.22,0-3.63-6.78-1.77-6.78-5.95C47.1,1.08,48.62,0,50.91,0a6.48,6.48,0,0,1,3.32.94l-.32.63A5.85,5.85,0,0,0,50.88.73Z"/><path d="M74.13.68a5.21,5.21,0,0,0-5.3,5.12A5.22,5.22,0,0,0,74.13,11a5.47,5.47,0,0,0,3.65-1.41l.43.49a6.11,6.11,0,0,1-4.1,1.6,5.9,5.9,0,0,1-6-5.81,5.89,5.89,0,0,1,6-5.8,6.14,6.14,0,0,1,4.08,1.55l-.41.53A5.41,5.41,0,0,0,74.13.68Z"/><path d="M97,11c2.52,0,4-1.49,4-4.07V0h.7V6.88c0,3-1.73,4.75-4.69,4.75s-4.69-1.74-4.69-4.75V0H93V6.88C93,9.46,94.5,11,97,11Z"/><path d="M125.36,2.9a2.54,2.54,0,0,1-2.24,2.67,2.85,2.85,0,0,1,2.82,2.93c0,2-1.54,3.12-4.16,3.12H117V0h4.74C124,0,125.36,1.09,125.36,2.9Zm-.7.08c0-1.44-1.07-2.27-2.93-2.27h-4V5.29h4C123.59,5.29,124.66,4.46,124.66,3Zm.58,5.44C125.24,6.86,124,6,121.73,6h-4v5h4C124,10.94,125.24,10,125.24,8.42Z"/><path d="M148.43,11.62l-2.74-3.93a6,6,0,0,1-1,.06h-3.4v3.87h-.7V0h4.1c2.86,0,4.49,1.39,4.49,3.81a3.53,3.53,0,0,1-2.85,3.73l2.9,4Zm-3.7-4.54c2.42,0,3.8-1.15,3.8-3.22S147.15.71,144.73.71h-3.41V7.08Z"/><path d="M171.67,0V.71h-6.78V5.34h6V6h-6v4.91h7v.68h-7.69V0Z"/><path d="M203.79,0V5.47h7.83V0h.7V11.62h-.7V6.15h-7.83v5.47h-.7V0Z"/><path d="M238.67,5.82a6,6,0,0,1-12,0,6,6,0,0,1,12,0Zm-11.28,0a5.29,5.29,0,0,0,10.57,0,5.29,5.29,0,0,0-10.57,0Z"/><path d="M256.47,7.37v4.25h-.68V7.41L251.15,0h.75l4.22,6.52L260.3,0h.75Z"/><path d="M298.82,0V.71H292V5.34h6V6h-6v4.91h7v.68h-7.69V0Z"/><path d="M314.48,0l7.74,10.53V0h.68V11.62h-.81L314.36,1.09V11.62h-.69V0Z"/><path d="M359.82.68a5.21,5.21,0,0,0-5.3,5.12,5.22,5.22,0,0,0,5.3,5.15,5.47,5.47,0,0,0,3.65-1.41l.43.49a6.1,6.1,0,0,1-4.09,1.6,5.9,5.9,0,0,1-6-5.81,5.88,5.88,0,0,1,6-5.8,6.14,6.14,0,0,1,4.08,1.55l-.42.53A5.39,5.39,0,0,0,359.82.68Z"/><path d="M385.46,8.32h-6.77l-1.5,3.3h-.76L381.69,0h.74l5.3,11.59H387Zm-.31-.7L382.05.83,379,7.62Z"/><path d="M402.15,0V10.94h5.16v.68h-5.85V0Z"/><path d="M428.69,8.32h-6.78l-1.49,3.3h-.76L424.91,0h.74L431,11.62h-.76Zm-.32-.7L425.27.83l-3.06,6.79Z"/><path d="M445.64,0l4.66,9.12L454.92,0h1V11.62h-.66L455.2,1l-4.75,9.37h-.32L445.35,1V11.62h-.67V0Z"/><path d="M478.64,8.32h-6.78l-1.49,3.3h-.76L474.86,0h.75l5.3,11.59h-.76Zm-.32-.7L475.23.83l-3.07,6.79Z"/><path d="M494.72,11.14a.6.6,0,0,1-.58.61.59.59,0,0,1-.57-.61.56.56,0,0,1,.57-.58A.57.57,0,0,1,494.72,11.14Z"/><path d="M509.32,11.14a.6.6,0,0,1-.58.61.58.58,0,0,1-.56-.61.55.55,0,0,1,.56-.58A.57.57,0,0,1,509.32,11.14Z"/><path d="M523.92,11.14a.59.59,0,0,1-.58.61.58.58,0,0,1-.56-.61.56.56,0,0,1,.56-.58A.57.57,0,0,1,523.92,11.14Z"/></g></g></svg>