<svg xmlns="http://www.w3.org/2000/svg" viewBox="0 0 286.24 138.16"><defs><style>.cls-1{font-size:37.49px;fill:#1d1e1c;font-family:Aquatico-Regular, Aquatico;}.cls-2{letter-spacing:-0.06em;}.cls-3{letter-spacing:-0.12em;}.cls-4{letter-spacing:0em;}.cls-5{fill:#00a6ce;}.cls-6{fill:#8093dc;}.cls-7{font-size:15.82px;fill:#090a0a;font-family:SinkinSans-400Regular, Sinkin Sans;letter-spacing:0.1em;}</style></defs><g id="Capa_2" data-name="Capa 2"><g id="Capa_1-2" data-name="Capa 1"><text class="cls-1" transform="translate(0 109.51)">AIRES<tspan class="cls-2" x="111.38" y="0"> </tspan><tspan x="123" y="0">DEL</tspan><tspan class="cls-3" x="199.48" y="0"> </tspan><tspan class="cls-4" x="208.86" y="0">SUR</tspan></text><path class="cls-5" d="M133.5,0l-1.59,1.33c-1,.91-2.52,2.15-4.26,3.93a38.12,38.12,0,0,0-5.47,6.92,31.79,31.79,0,0,0-2.45,4.73A36.53,36.53,0,0,0,118,22.5a38.24,38.24,0,0,0-.74,6.33,27.16,27.16,0,0,0,.65,6.55,24.31,24.31,0,0,0,6.88,12.18,23.87,23.87,0,0,0,13.34,6.49A21.32,21.32,0,0,0,152.86,51a20.9,20.9,0,0,0,8.78-12.18l.39-1.87c.1-.62.14-1.26.21-1.88,0-.11,0-.42,0-.37V33.12c0-.65-.11-1.15-.16-1.74a16.48,16.48,0,0,0-2.65-6.67A16.26,16.26,0,0,0,148,17.61l-.83-.09-.21,0s-.15,0,0,0h-1.48l-.75.06a13.5,13.5,0,0,0-12.08,13.74,11.12,11.12,0,0,0,3.48,7.57,11.56,11.56,0,0,0,4.9,2.78,10,10,0,0,0,1.5.31L143,42h-.53a9.75,9.75,0,0,1-1.54-.14,11.59,11.59,0,0,1-5.42-2.35A12.37,12.37,0,0,1,131,31.33a15.37,15.37,0,0,1,3.68-11.69,16.5,16.5,0,0,1,5.91-4.28,16.27,16.27,0,0,1,3.79-1l1-.14.91,0h.78l.25,0,1,.06a20,20,0,0,1,14.48,8.13,20.61,20.61,0,0,1,3.58,8.33c.1.79.23,1.66.28,2.4l0,1,0,.53a5.11,5.11,0,0,1,0,.68c-.06.76-.09,1.53-.19,2.3l-.41,2.29a25.17,25.17,0,0,1-19.31,18.75,18.37,18.37,0,0,1-2.41.38l-1.23.12H141c-.61,0-.83,0-1.27-.06-.76,0-1.53-.16-2.29-.25a28.23,28.23,0,0,1-23.73-22.58,29,29,0,0,1-.51-7.74,35.11,35.11,0,0,1,1.28-6.93,31.45,31.45,0,0,1,5.6-10.9,37.54,37.54,0,0,1,6.7-6.44A44,44,0,0,1,131.69,1Z"/><path class="cls-6" d="M128.6,62.51l2.07.19c1.34.06,3.3.25,5.79.23a38.06,38.06,0,0,0,8.77-1,31.42,31.42,0,0,0,5.07-1.6,37.6,37.6,0,0,0,5.17-2.75,39.4,39.4,0,0,0,5-3.95,27.44,27.44,0,0,0,4.18-5.09A24.4,24.4,0,0,0,168.38,35a23.9,23.9,0,0,0-4.85-14A21.29,21.29,0,0,0,151,12.77a20.85,20.85,0,0,0-14.82,2.4l-1.59,1c-.52.37-1,.8-1.49,1.19a3.51,3.51,0,0,1-.29.23l-.37.37-.74.74c-.44.48-.73.9-1.12,1.34a16.54,16.54,0,0,0-2.83,6.6,16.26,16.26,0,0,0,3.09,13.13l.52.66.13.16s.11.12,0,0l.08.08.32.33.63.65.58.49a13.16,13.16,0,0,0,2.61,1.7A13.61,13.61,0,0,0,151.33,41a11.13,11.13,0,0,0,2.89-7.81,11.59,11.59,0,0,0-1.49-5.44,9.39,9.39,0,0,0-.85-1.27l-.31-.43.36.39a8.4,8.4,0,0,1,1,1.18,11.51,11.51,0,0,1,2.17,5.5,12.33,12.33,0,0,1-2.55,9,15.35,15.35,0,0,1-10.86,5.66,16.36,16.36,0,0,1-7.21-1.15,16.52,16.52,0,0,1-3.42-1.94l-.84-.64-.67-.61-.34-.31-.08-.08-.14-.16-.17-.18-.66-.76a20,20,0,0,1-4.49-16A20.62,20.62,0,0,1,127,17.56c.49-.63,1-1.34,1.51-1.89l.72-.76.36-.38c.28-.28.32-.29.5-.46.59-.49,1.15-1,1.77-1.48l1.91-1.33A25,25,0,0,1,152,8.06a25.26,25.26,0,0,1,8.74,3.59,18.28,18.28,0,0,1,2,1.44l1,.78.77.74.76.75c.42.43.55.62.85.94.51.57,1,1.2,1.44,1.8a28.21,28.21,0,0,1,.82,32.75,29.58,29.58,0,0,1-5.11,5.83,35.14,35.14,0,0,1-5.81,4,31.5,31.5,0,0,1-11.67,3.75,37.68,37.68,0,0,1-9.29-.18,43.42,43.42,0,0,1-5.77-1.16Z"/><text class="cls-7" transform="translate(98.98 133.97)">EDIFICIO</text></g></g></svg>