<svg xmlns="http://www.w3.org/2000/svg" viewBox="0 0 125.64 32.24"><defs><style>.cls-1{fill:#fff;}</style></defs><g id="Capa_2" data-name="Capa 2"><g id="FRANJA_LOGA" data-name="FRANJA LOGA"><path class="cls-1" d="M125.64,31.54,110.9.37H106l1.68,3.78L94.39,31.54h4.84L109.91,9.61l10.75,21.88h0l0,.05Z"/><path class="cls-1" d="M0,.9H4.48V27.07h17v4.47H0Z"/><path class="cls-1" d="M54.3,24.36a16.72,16.72,0,0,1-14.25,7.88,16.42,16.42,0,0,1-8.34-2.17,15.93,15.93,0,0,1-6-6,16.42,16.42,0,0,1-2.17-8.34,14.71,14.71,0,0,1,2.28-8,16.35,16.35,0,0,1,6.07-5.69A16.8,16.8,0,0,1,40.09,0a16.34,16.34,0,0,1,8.25,2.16,16.15,16.15,0,0,1,6,5.89,15.79,15.79,0,0,1,2.22,8.22A15.16,15.16,0,0,1,54.3,24.36ZM50.48,10.1A11.48,11.48,0,0,0,46.06,6,13.05,13.05,0,0,0,33.91,6a11.17,11.17,0,0,0-4.36,4.21A11.76,11.76,0,0,0,28,16.31a10.61,10.61,0,0,0,1.68,5.83,12,12,0,0,0,4.46,4.13,12.37,12.37,0,0,0,6,1.5,12,12,0,0,0,6-1.56A11.84,11.84,0,0,0,50.5,22,11.27,11.27,0,0,0,52.12,16,11,11,0,0,0,50.48,10.1Z"/><path class="cls-1" d="M82.89,5.5a12.76,12.76,0,0,0-4.93-1A12.56,12.56,0,0,0,71.82,6a11.17,11.17,0,0,0-4.36,4.21,11.76,11.76,0,0,0-1.58,6.06,10.61,10.61,0,0,0,1.68,5.83A12,12,0,0,0,72,26.27a12.37,12.37,0,0,0,6,1.5A12.2,12.2,0,0,0,82.33,27a12.6,12.6,0,0,0,3.72-2.18V19.22h-4l-1.93-4.43H90.48V26.7a16.36,16.36,0,0,1-5.6,4.08A16.69,16.69,0,0,1,78,32.24a16.42,16.42,0,0,1-8.34-2.17,15.93,15.93,0,0,1-6-6,16.42,16.42,0,0,1-2.17-8.34,14.71,14.71,0,0,1,2.28-8,16.35,16.35,0,0,1,6.07-5.69,17.07,17.07,0,0,1,14.61-.8,16.55,16.55,0,0,1,5.34,3.58L86.91,8.21A12.28,12.28,0,0,0,82.89,5.5Z"/></g></g></svg>