<svg xmlns="http://www.w3.org/2000/svg" xmlns:xlink="http://www.w3.org/1999/xlink" viewBox="0 0 423.06 287.27"><defs><style>.cls-1,.cls-11,.cls-14,.cls-3,.cls-4,.cls-5{fill:none;}.cls-2{clip-path:url(#clip-path);}.cls-3{stroke:#1d1d1b;}.cls-14,.cls-3,.cls-4,.cls-5{stroke-miterlimit:10;}.cls-11,.cls-3,.cls-4,.cls-5{stroke-width:0.76px;}.cls-11,.cls-4{stroke:#706f6f;}.cls-5{stroke:#bababa;}.cls-13,.cls-6{fill:#090a0a;}.cls-7{fill:#8093dc;}.cls-8,.cls-9{fill:#fff;}.cls-9{stroke:#e00613;stroke-width:0.3px;}.cls-10{fill:#363536;}.cls-12{fill:#706f6f;}.cls-13{font-size:7.26px;font-family:SinkinSans-500Medium, Sinkin Sans;font-weight:500;}.cls-14{stroke:#090a0a;stroke-width:0.68px;}</style><clipPath id="clip-path" transform="translate(84.93 69.3)"><rect class="cls-1" y="17.4" width="247.14" height="154.97"/></clipPath></defs><g id="Capa_2" data-name="Capa 2"><g id="Capa_1-2" data-name="Capa 1"><g class="cls-2"><polyline class="cls-3" points="312.7 263.85 311.88 267.01 306.89 283.03"/><polyline class="cls-4" points="112.28 195.88 338.34 272.64 338.7 281.06 324.05 286.92"/><path class="cls-4" d="M32.29,90.87s25.62-14.58,56.49-2.23c15.89,6.35,22.89,8.12,22.89,8.12l139.17,46.88S293.33,154.26,308,181" transform="translate(84.93 69.3)"/><path class="cls-4" d="M111.67,96.76l38.46-26.37s19-12.45,23.07-20.51,25.64-94.12,25.64-94.12" transform="translate(84.93 69.3)"/><line class="cls-4" x1="258.86" y1="115.88" x2="422.94" y2="173.02"/><path class="cls-5" d="M-67.53,109.12C-45.93,101.71,34,88,34,88S70.65,72.59,88.6,68.56s62.26-16.11,72.51-36.62S206.89-69.14,206.89-69.14" transform="translate(84.93 69.3)"/><path class="cls-5" d="M-12,86.39C38.57,77.11,97.3,66.55,97.3,66.55" transform="translate(84.93 69.3)"/><polyline class="cls-5" points="74.54 151.94 151.92 138.96 208.32 127.6"/><path class="cls-5" d="M-34.83,70.76c22.35-4.4,69.22-7.33,93.4-7.33s62.26-7.69,67-9.15S147.2,45.85,156,30.84s46.14-99.62,46.14-99.62" transform="translate(84.93 69.3)"/><path class="cls-4" d="M-84.78,84.4S-20.47,56.06,21,58.19,84.37,52.1,84.37,52.1s4.92-2.39,8.11-18.9" transform="translate(84.93 69.3)"/><path class="cls-4" d="M38.09,43.41s49.25-7,53.82-10.1,31.32-43.34,31-49.43" transform="translate(84.93 69.3)"/><path class="cls-6" d="M157.63,116.94l.08,4.57-.8-.26v-1l-1.46-.48-.54.81-.75-.25,2.53-3.71Zm-.73,2.59V117.6l-1.05,1.58Z" transform="translate(84.93 69.3)"/><path class="cls-6" d="M159.94,117.72l0,3.57,1.91-2.93.78.25-2.55,3.68-.86-.28-.16-4.57Z" transform="translate(84.93 69.3)"/><path class="cls-6" d="M162.1,122.12l.65.21-.22.76-.65-.21Z" transform="translate(84.93 69.3)"/><path class="cls-6" d="M165.71,122.69a.71.71,0,0,0,.44,1c.43.14.77,0,.87-.35s-.11-.5-.54-.78c-.81-.54-1.2-1-1-1.7a1.28,1.28,0,0,1,1.83-.81,1.45,1.45,0,0,1,1,.86,1.38,1.38,0,0,1,0,.83l-.76-.25a.64.64,0,0,0-.42-.82.55.55,0,0,0-.77.36c-.11.38.14.54.63.86s1.16.79.92,1.59a1.38,1.38,0,0,1-2,.83,1.36,1.36,0,0,1-1-1.89Z" transform="translate(84.93 69.3)"/><path class="cls-6" d="M171.24,121.42l.08,4.56-.79-.26v-1l-1.46-.48-.53.81-.76-.25,2.54-3.71Zm-.72,2.59v-1.94l-1.06,1.59Z" transform="translate(84.93 69.3)"/><path class="cls-6" d="M173,122l1.14.37.44,3.72.95-3.26.73.24-1.2,4.14-1.09-.35-.43-3.91-1,3.44-.75-.25Z" transform="translate(84.93 69.3)"/><path class="cls-6" d="M177.58,124.26l-1.1-.36.2-.69,3,1-.2.69-1.1-.36-1,3.45-.79-.26Z" transform="translate(84.93 69.3)"/><path class="cls-6" d="M182,125l.08,4.57-.79-.26v-1l-1.46-.48-.53.8-.76-.25,2.53-3.7Zm-.72,2.59v-1.93l-1.06,1.58Z" transform="translate(84.93 69.3)"/><path class="cls-6" d="M185.14,126l1.41.46a1.66,1.66,0,0,1,1,.65,1.25,1.25,0,0,1,.09.9,1,1,0,0,1-1.07.77c.54.24.48.6.39,1.17s-.11.71-.12.83a.91.91,0,0,0,0,.34l-.88-.29c0-.24.23-1.32.22-1.5s-.2-.32-.33-.37l-.69-.23-.49,1.68-.8-.27Zm.25,2.07.64.21a.64.64,0,0,0,.44,0,.61.61,0,0,0,.34-.42.58.58,0,0,0-.06-.53c-.09-.13-.24-.18-.49-.27l-.53-.17Z" transform="translate(84.93 69.3)"/><path class="cls-6" d="M190.25,127.58a1.78,1.78,0,0,1,1.13,1,2.73,2.73,0,0,1,0,1.72,2.77,2.77,0,0,1-.94,1.47,1.68,1.68,0,0,1-1.48.15,1.83,1.83,0,0,1-1.14-1,2.65,2.65,0,0,1,0-1.7C188.15,128.11,188.92,127.14,190.25,127.58Zm-1.64,3.12a.78.78,0,0,0,.57.55.72.72,0,0,0,.8-.15,2.27,2.27,0,0,0,.59-1.11,2.81,2.81,0,0,0,.13-.77,1,1,0,0,0-.63-1,.84.84,0,0,0-.78.13,2.1,2.1,0,0,0-.62,1.11A2.14,2.14,0,0,0,188.61,130.7Z" transform="translate(84.93 69.3)"/><path class="cls-6" d="M192.38,131.46a.7.7,0,0,0,.44,1c.43.14.76,0,.86-.35s-.1-.5-.53-.78c-.81-.54-1.2-1-1-1.7a1.29,1.29,0,0,1,1.83-.81,1.46,1.46,0,0,1,1,.86,1.36,1.36,0,0,1,0,.83l-.76-.25a.64.64,0,0,0-.41-.82.55.55,0,0,0-.77.36c-.11.38.14.54.63.86s1.15.79.92,1.59a1.39,1.39,0,0,1-2,.83,1.36,1.36,0,0,1-1-1.89Z" transform="translate(84.93 69.3)"/><path class="cls-6" d="M197.91,130.19l.08,4.56-.79-.26v-1l-1.46-.48-.53.8-.76-.24,2.53-3.71Zm-.73,2.59v-1.94l-1.06,1.59Z" transform="translate(84.93 69.3)"/><path class="cls-6" d="M201.05,131.23l1.22.41a2.28,2.28,0,0,1,1.16.79,2.23,2.23,0,0,1,.15,1.84c-.36,1.27-1.16,1.73-1.9,1.65a3.09,3.09,0,0,1-.68-.18l-1.15-.37Zm-.2,3.72.31.11a1.07,1.07,0,0,0,.94,0,2,2,0,0,0,.67-1.06,1.29,1.29,0,0,0-.31-1.5,2.09,2.09,0,0,0-.8-.33Z" transform="translate(84.93 69.3)"/><path class="cls-6" d="M204.78,132.45l2.47.81-.19.68-1.68-.55-.29,1,1.57.52-.19.68-1.57-.52-.33,1.12,1.74.57-.2.68-2.53-.83Z" transform="translate(84.93 69.3)"/><path class="cls-6" d="M209.25,133.92l1.29.42-.09,3.27,1.72-2.73,1.25.41-1.2,4.14-.79-.26,1-3.55-2,3.22-.65-.21,0-3.88-1,3.56-.74-.25Z" transform="translate(84.93 69.3)"/><path class="cls-6" d="M215.77,136a1.76,1.76,0,0,1,1.14,1,3.07,3.07,0,0,1-.92,3.18,1.69,1.69,0,0,1-1.48.16,1.82,1.82,0,0,1-1.14-1,2.56,2.56,0,0,1,0-1.69C213.68,136.5,214.45,135.53,215.77,136Zm-1.63,3.13a.78.78,0,0,0,.57.55.75.75,0,0,0,.8-.16,2.17,2.17,0,0,0,.59-1.1,2.49,2.49,0,0,0,.12-.77,1,1,0,0,0-.63-1,.8.8,0,0,0-.77.12,2.06,2.06,0,0,0-.62,1.12A2.13,2.13,0,0,0,214.14,139.1Z" transform="translate(84.93 69.3)"/><path class="cls-6" d="M218.09,136.83l.8.27-1,3.43,1.58.52-.2.7-2.39-.78Z" transform="translate(84.93 69.3)"/><path class="cls-6" d="M220.93,137.76l.8.27-1,3.43,1.58.52-.2.71-2.39-.79Z" transform="translate(84.93 69.3)"/><path class="cls-6" d="M223.79,138.7l2.47.81-.2.68-1.67-.55-.29,1,1.57.52-.19.68-1.57-.52-.33,1.12,1.74.57-.2.68-2.53-.83Z" transform="translate(84.93 69.3)"/><path class="cls-6" d="M226.7,142.75a.7.7,0,0,0,.44,1c.43.14.77,0,.87-.35s-.11-.5-.54-.78c-.8-.54-1.2-1-1-1.7a1.27,1.27,0,0,1,1.83-.81,1.43,1.43,0,0,1,1,.85,1.42,1.42,0,0,1,0,.84l-.76-.25a.64.64,0,0,0-.42-.83.56.56,0,0,0-.77.37c-.11.38.14.54.63.86s1.16.78.93,1.59a1.4,1.4,0,0,1-2,.83,1.36,1.36,0,0,1-1-1.89Z" transform="translate(84.93 69.3)"/><path class="cls-6" d="M231.36,144.54a.52.52,0,0,0,.31.68.48.48,0,0,0,.61-.39c.18-.59-.33-.76-.7-.88l.19-.67c.36.1.89.26,1.06-.31a.49.49,0,0,0-.3-.62.45.45,0,0,0-.58.36l-.78-.26a1.08,1.08,0,0,1,1.52-.72,1.19,1.19,0,0,1,.88,1.48.9.9,0,0,1-.94.68,1.25,1.25,0,0,1,.35.39,1,1,0,0,1,.08.81,1.21,1.21,0,0,1-1.63.75,1.4,1.4,0,0,1-.78-.55,1.29,1.29,0,0,1-.06-1Z" transform="translate(84.93 69.3)"/><path class="cls-6" d="M234.22,145.6a.4.4,0,0,0,.26.51c.53.18.75-.43.89-1a.86.86,0,0,1-.72.06,1.34,1.34,0,0,1,.91-2.51c1.22.4.87,1.72.69,2.36-.49,1.69-1.14,2-2,1.72a1.07,1.07,0,0,1-.8-1.41Zm1.44-1.52c.1-.35,0-.66-.3-.76s-.59.17-.68.47c0,.14-.15.64.3.79S235.58,144.37,235.66,144.08Z" transform="translate(84.93 69.3)"/><path class="cls-6" d="M236.17,146.36l.22-.78,2.11-1.88.77.25-.73,2.47.49.15-.19.66-.49-.16-.25.87-.75-.24.25-.87Zm.76-.46.9.3.3-1.06s.1-.33.14-.44Z" transform="translate(84.93 69.3)"/><path class="cls-6" d="M239.74,145.25a1.15,1.15,0,0,1,1.56-.71,1.21,1.21,0,0,1,.89,1.48.88.88,0,0,1-.95.65,1,1,0,0,1,.45.6,1.1,1.1,0,0,1,0,.65,1.2,1.2,0,0,1-1.64.73,1.27,1.27,0,0,1-.89-1.57,1,1,0,0,1,.46-.61,1.14,1.14,0,0,1,.56-.14A1,1,0,0,1,239.74,145.25Zm1.21,2.36a.57.57,0,0,0-.34-.74.54.54,0,0,0-.69.42.58.58,0,0,0,.35.76A.53.53,0,0,0,241,147.61Zm.49-1.79a.51.51,0,0,0-.33-.65.46.46,0,0,0-.61.34.52.52,0,0,0,.31.67A.48.48,0,0,0,241.44,145.82Z" transform="translate(84.93 69.3)"/><path class="cls-6" d="M124.36,94.23c.19.22.55.62,1.25.11a.73.73,0,0,0,.24-1.11c-.29-.36-.62-.23-1.14,0a3,3,0,0,1-1,.31,1,1,0,0,1-.82-.41,1.22,1.22,0,0,1,.39-1.8,1.43,1.43,0,0,1,1.1-.31,1.21,1.21,0,0,1,.63.42l-.44.32a.69.69,0,0,0-1,0c-.42.31-.5.7-.24,1s.48.26.92.08a3.79,3.79,0,0,1,1.25-.38,1,1,0,0,1,.82.43,1.24,1.24,0,0,1-.38,1.9,1.24,1.24,0,0,1-1.93-.21Z" transform="translate(84.93 69.3)"/><path class="cls-6" d="M128.89,92.4a2.34,2.34,0,0,1-.31-.32.79.79,0,0,1-.32.9.87.87,0,0,1-1.27-.12,1,1,0,0,1-.16-.94,1.75,1.75,0,0,1,.61-.69l.29-.2c-.22-.28-.32-.4-.47-.44a.57.57,0,0,0-.49.12.45.45,0,0,0-.11.7l-.4.29a1,1,0,0,1-.19-.54,1.09,1.09,0,0,1,.48-.75,1.05,1.05,0,0,1,1-.22,1,1,0,0,1,.35.3l.85,1.1s.27.33.49.54Zm-1.16-.92c-.16.12-.76.56-.39,1a.51.51,0,0,0,.75.07.58.58,0,0,0,.25-.57,1.42,1.42,0,0,0-.37-.67Z" transform="translate(84.93 69.3)"/><path class="cls-6" d="M128.35,89.61l-.22-.26.4-.3.3.37a.79.79,0,0,1,.34-.91.94.94,0,0,1,1.38.21l1.23,1.54-.4.3-1.16-1.45a.67.67,0,0,0-.42-.3.64.64,0,0,0-.49.12c-.29.21-.37.63,0,1.08l1,1.31-.39.29Z" transform="translate(84.93 69.3)"/><path class="cls-6" d="M130.35,87.69l.37-.28-.37-.47.28-.43.48.61.47-.34.25.31-.47.35,1.09,1.36a.33.33,0,0,0,.52.09,1.42,1.42,0,0,0,.17-.16l.26.33a2.23,2.23,0,0,1-.3.27c-.36.27-.62.28-.92-.09L131,87.72l-.37.28Z" transform="translate(84.93 69.3)"/><path class="cls-6" d="M135.16,87.75a1.47,1.47,0,0,1-.3-.31.81.81,0,0,1-.32.89.88.88,0,0,1-1.28-.12,1,1,0,0,1-.16-.94,1.9,1.9,0,0,1,.61-.69l.29-.19c-.22-.28-.32-.41-.47-.45a.64.64,0,0,0-.49.12.45.45,0,0,0-.11.7l-.39.29a1,1,0,0,1-.2-.54,1.09,1.09,0,0,1,.48-.75,1.05,1.05,0,0,1,1-.21.87.87,0,0,1,.35.29l.85,1.1s.28.34.49.55ZM134,86.83c-.16.12-.75.56-.39,1a.52.52,0,0,0,.75.07.59.59,0,0,0,.25-.58,1.42,1.42,0,0,0-.37-.67A1.79,1.79,0,0,0,134,86.83Z" transform="translate(84.93 69.3)"/><path class="cls-6" d="M136.83,85.11a.85.85,0,0,0,.35.3.58.58,0,0,0,.55-.08.55.55,0,0,0,.23-.54,1.26,1.26,0,0,0-.28-.5L135.88,82l.41-.31,1.91,2.39a1.07,1.07,0,0,1-.2,1.62,1.15,1.15,0,0,1-1,.19,1.38,1.38,0,0,1-.63-.49Z" transform="translate(84.93 69.3)"/><path class="cls-6" d="M137.06,81.17l.48-.36.37.47-.48.35Zm.83,1,.39-.29,1.81,2.27-.39.29Z" transform="translate(84.93 69.3)"/><path class="cls-6" d="M139.29,81.57l-.25-.3.39-.29.27.33a.84.84,0,0,1,.35-.89.88.88,0,0,1,1-.08.9.9,0,0,1,.36-1,1,1,0,0,1,1.42.24l1.21,1.52-.4.3L142.51,80a.81.81,0,0,0-.34-.29.58.58,0,0,0-.56.1.62.62,0,0,0-.26.57,1.2,1.2,0,0,0,.3.55l1,1.28-.4.29L141.07,81a.59.59,0,0,0-.86-.16.65.65,0,0,0-.26.59,1.05,1.05,0,0,0,.28.53l1,1.29-.39.29Z" transform="translate(84.93 69.3)"/><path class="cls-6" d="M144.2,79.37c.37.48.83.69,1.26.38a.57.57,0,0,0,.11-.84l.4-.29a1,1,0,0,1,.2.61,1,1,0,0,1-.48.83c-.67.49-1.33.28-1.91-.44a1.51,1.51,0,0,1-.43-1.37,1.1,1.1,0,0,1,.44-.59c.94-.7,1.63.22,1.92.59Zm.87-1.12c-.17-.22-.57-.64-1-.28-.26.19-.43.58,0,1.09Z" transform="translate(84.93 69.3)"/><path class="cls-6" d="M145.54,76.87l-.21-.26.39-.29.3.36a.81.81,0,0,1,.35-.91.93.93,0,0,1,1.37.21L149,77.52l-.4.3-1.15-1.44a.71.71,0,0,0-.42-.31.66.66,0,0,0-.5.12c-.28.21-.37.63,0,1.09l1,1.3-.4.3Z" transform="translate(84.93 69.3)"/><path class="cls-6" d="M151,76a1.52,1.52,0,0,1-.31-.31.8.8,0,0,1-.32.89.86.86,0,0,1-1.27-.12.93.93,0,0,1-.17-.93,1.75,1.75,0,0,1,.61-.69,2.6,2.6,0,0,1,.3-.2c-.23-.28-.32-.4-.48-.44a.54.54,0,0,0-.48.12.44.44,0,0,0-.12.69l-.39.29a.93.93,0,0,1-.2-.54,1,1,0,0,1,1.85-.66l.84,1.1s.28.33.49.54Zm-1.17-.91c-.15.12-.75.56-.38,1a.5.5,0,0,0,.74.07.58.58,0,0,0,.26-.57A1.53,1.53,0,0,0,150,75Z" transform="translate(84.93 69.3)"/><polygon class="cls-7" points="283.35 157.03 273.58 189.72 295.5 196.73 304.99 163.14 283.35 157.03"/><path class="cls-8" d="M196.88,102.34l0,.56c0,.36-.07.89-.07,1.56a10.22,10.22,0,0,0,.28,2.36,8.31,8.31,0,0,0,.43,1.37,10.52,10.52,0,0,0,.74,1.4,11.62,11.62,0,0,0,1.07,1.34,7.3,7.3,0,0,0,1.37,1.13,6.63,6.63,0,0,0,3.64,1,6.48,6.48,0,0,0,3.78-1.31,5.79,5.79,0,0,0,2.22-3.39,5.6,5.6,0,0,0-.65-4l-.28-.43c-.1-.14-.22-.27-.32-.4l-.06-.08-.1-.1-.2-.2c-.13-.12-.24-.2-.36-.3a4.47,4.47,0,0,0-1.78-.77,4.4,4.4,0,0,0-3.54.84l-.18.14,0,0s0,0,0,0l0,0-.09.08-.18.17-.13.16a3.68,3.68,0,0,0-.46.7,3.75,3.75,0,0,0-.35,1.59,3.66,3.66,0,0,0,1.13,2.63,3,3,0,0,0,2.1.78,3.25,3.25,0,0,0,1.47-.4,2.14,2.14,0,0,0,.34-.23l.12-.09-.11.1a2.07,2.07,0,0,1-.32.27,3,3,0,0,1-1.48.58,3.34,3.34,0,0,1-2.42-.68,4.13,4.13,0,0,1-1.53-2.93,4.49,4.49,0,0,1,.31-2,4.54,4.54,0,0,1,.53-.92l.17-.22.16-.19.09-.09,0,0,0,0,.05,0,.2-.18a5.39,5.39,0,0,1,4.31-1.21,5.54,5.54,0,0,1,2.28.9l.51.41.2.19.1.1.13.14.4.47.35.52a6.75,6.75,0,0,1-.1,7.25,6.08,6.08,0,0,1-.39.54l-.21.25-.2.21-.2.2-.25.23c-.16.14-.33.26-.49.39A7.59,7.59,0,0,1,200,113a8,8,0,0,1-1.57-1.38,9.46,9.46,0,0,1-1.08-1.56,8.61,8.61,0,0,1-1-3.15,10.08,10.08,0,0,1,0-2.5,12.82,12.82,0,0,1,.31-1.56Z" transform="translate(84.93 69.3)"/><path class="cls-8" d="M207.86,114.84l.43-.36c.27-.24.68-.58,1.15-1.06a10.05,10.05,0,0,0,1.47-1.86,8.56,8.56,0,0,0,.67-1.28,10.69,10.69,0,0,0,.46-1.51,10.16,10.16,0,0,0,.19-1.7,7.22,7.22,0,0,0-.17-1.77A6.56,6.56,0,0,0,210.2,102a6.39,6.39,0,0,0-3.59-1.75,5.71,5.71,0,0,0-4,.82,5.64,5.64,0,0,0-2.37,3.29l-.1.5c0,.17,0,.34-.06.51a.77.77,0,0,1,0,.1v.42c0,.18,0,.31,0,.47a4.58,4.58,0,0,0,.72,1.8,4.38,4.38,0,0,0,3.09,1.91l.23,0h0s.05,0,0,0h.6a3.88,3.88,0,0,0,.82-.18,3.61,3.61,0,0,0,1.37-.87,3.67,3.67,0,0,0,1.07-2.66,3,3,0,0,0-.94-2,3.13,3.13,0,0,0-1.32-.75,2.38,2.38,0,0,0-.41-.08l-.14,0h.15a2.61,2.61,0,0,1,.41,0,3.17,3.17,0,0,1,1.46.63,3.33,3.33,0,0,1,1.23,2.2,4.13,4.13,0,0,1-1,3.15A4.45,4.45,0,0,1,206,110.7a4.88,4.88,0,0,1-1,.28l-.28,0h-.52l-.27,0a5.44,5.44,0,0,1-3.91-2.19,5.53,5.53,0,0,1-1-2.25c0-.21-.07-.44-.08-.64v-.43c0-.1,0-.12,0-.18s0-.41.05-.62l.11-.62a6.8,6.8,0,0,1,5.21-5,4.41,4.41,0,0,1,.65-.11l.33,0h.92c.2,0,.41,0,.62.07a7.69,7.69,0,0,1,6.53,8.17A9.24,9.24,0,0,1,213,109a8.66,8.66,0,0,1-1.51,2.94,10.27,10.27,0,0,1-1.81,1.74,11.37,11.37,0,0,1-1.32.88Z" transform="translate(84.93 69.3)"/><path class="cls-9" d="M159.91,27.52a3,3,0,0,1,.4-1.22L159,25a1.67,1.67,0,0,1-2.07,0,1.68,1.68,0,0,1-2.08,0l-1.34,1.34a3,3,0,0,1,.4,1.22c0,.91-.4,1.13-.4,2a1.93,1.93,0,0,0,2,1.87,1.8,1.8,0,0,1,1.42.47,1.72,1.72,0,0,1,1.39-.47,1.93,1.93,0,0,0,2-1.87C160.31,28.65,159.91,28.43,159.91,27.52Z" transform="translate(84.93 69.3)"/><path class="cls-10" d="M155,27.35a3.68,3.68,0,0,0,.73-.45h.5v3h-.59V27.57A2.81,2.81,0,0,1,155,28Z" transform="translate(84.93 69.3)"/><path class="cls-10" d="M158.23,27.65a.27.27,0,0,0-.29-.3c-.39,0-.4.54-.41.85a.7.7,0,0,1,.54-.24c.38,0,.78.3.78,1a1,1,0,0,1-.29.79.88.88,0,0,1-.7.28c-.94,0-.94-1-.94-1.38a2,2,0,0,1,.44-1.54,1,1,0,0,1,.63-.21.77.77,0,0,1,.82.79Zm0,1.31c0-.33-.15-.52-.35-.52s-.39.06-.39.53.18.53.37.53S158.27,29.37,158.27,29Z" transform="translate(84.93 69.3)"/><ellipse class="cls-11" cx="105.34" cy="112.71" rx="17.68" ry="8.99"/><ellipse class="cls-12" cx="105.34" cy="112.46" rx="10.61" ry="5.09"/><path class="cls-6" d="M63.91,145.28a1,1,0,0,0-.06.46.58.58,0,0,0,.38.4.56.56,0,0,0,.58-.1,1.15,1.15,0,0,0,.25-.51l.88-2.76.49.17-.92,2.91a1.07,1.07,0,0,1-1.46.74,1.11,1.11,0,0,1-.71-.71,1.4,1.4,0,0,1,0-.79Z" transform="translate(84.93 69.3)"/><path class="cls-6" d="M67.4,144.64l-.56,1.78c-.09.27-.14.63.33.8a.68.68,0,0,0,.68-.1,1,1,0,0,0,.26-.49l.5-1.56.47.17-.71,2.25s-.1.36-.15.52l-.48-.17.14-.48a.78.78,0,0,1-.94.22.91.91,0,0,1-.6-1.25l.59-1.86Z" transform="translate(84.93 69.3)"/><path class="cls-6" d="M70.6,148.85a1.58,1.58,0,0,1,.09-.42.8.8,0,0,1-.92.23.87.87,0,0,1-.61-1.13.93.93,0,0,1,.69-.65,1.73,1.73,0,0,1,.91.12l.33.13c.1-.34.15-.49.1-.64a.57.57,0,0,0-.37-.33.44.44,0,0,0-.64.29l-.46-.17a1,1,0,0,1,.33-.46,1.06,1.06,0,0,1,.89,0,1,1,0,0,1,.75.71,1.06,1.06,0,0,1,0,.46l-.44,1.31c0,.05-.13.42-.18.71Zm.11-1.47c-.18-.07-.88-.31-1.06.25a.5.5,0,0,0,.36.66.61.61,0,0,0,.62-.11,1.51,1.51,0,0,0,.34-.69A1.69,1.69,0,0,0,70.71,147.38Z" transform="translate(84.93 69.3)"/><path class="cls-6" d="M72.62,146.85l.09-.32.46.16-.13.45a.81.81,0,0,1,.95-.22.94.94,0,0,1,.59,1.26L74,150.06l-.47-.17.55-1.76a.72.72,0,0,0,0-.52.63.63,0,0,0-.38-.34c-.33-.12-.73,0-.9.6l-.51,1.59-.46-.16Z" transform="translate(84.93 69.3)"/><path class="cls-6" d="M75.7,147.59l.46.16-.87,2.77-.46-.16Zm.33-1.22.56.2-.18.56-.56-.19Z" transform="translate(84.93 69.3)"/><path class="cls-6" d="M76.69,147.93l.43.15.19-.58h.5l-.23.74.55.2-.12.38-.55-.2-.52,1.66a.33.33,0,0,0,.21.49.87.87,0,0,0,.23,0l-.13.4a1.71,1.71,0,0,1-.39-.1c-.42-.15-.58-.36-.44-.81l.58-1.85-.43-.15Z" transform="translate(84.93 69.3)"/><path class="cls-6" d="M79.32,152a1.65,1.65,0,0,1,.09-.43.79.79,0,0,1-.92.23.85.85,0,0,1-.61-1.12,1,1,0,0,1,.68-.66,2,2,0,0,1,.92.12l.32.14c.11-.34.16-.49.11-.64a.62.62,0,0,0-.37-.34.45.45,0,0,0-.64.3l-.46-.17a1,1,0,0,1,.33-.46,1.26,1.26,0,0,1,1.64.7,1,1,0,0,1-.06.46l-.43,1.31a5.63,5.63,0,0,0-.18.71Zm.11-1.47c-.19-.07-.89-.32-1.06.25a.51.51,0,0,0,.35.66.58.58,0,0,0,.62-.12,1.37,1.37,0,0,0,.35-.68Z" transform="translate(84.93 69.3)"/><path class="cls-6" d="M83.2,148.9l2.11.75-.15.47-1.61-.57-.39,1.24,1.51.54-.14.46L83,151.25l-.57,1.81-.5-.17Z" transform="translate(84.93 69.3)"/><path class="cls-6" d="M85.32,152.65c-.19.57-.11,1.07.39,1.25a.56.56,0,0,0,.76-.37l.46.17a1,1,0,0,1-.39.5,1,1,0,0,1-1,.07c-.78-.28-1-1-.7-1.82a1.5,1.5,0,0,1,.9-1.13,1.08,1.08,0,0,1,.73,0c1.11.39.74,1.48.58,1.93Zm1.42.1c.09-.26.22-.83-.35-1-.3-.11-.73,0-.93.57Z" transform="translate(84.93 69.3)"/><path class="cls-6" d="M88.08,152.61c.06-.18.11-.38.16-.57l.46.17-.16.54a.69.69,0,0,1,.76-.34,1.91,1.91,0,0,1,.33.1l-.17.51a.12.12,0,0,0-.08-.05l-.13-.06c-.54-.19-.78.13-.93.6L87.85,155l-.46-.17Z" transform="translate(84.93 69.3)"/><path class="cls-6" d="M90.06,153.05l.09-.33.46.17-.13.45a.81.81,0,0,1,1-.22.94.94,0,0,1,.59,1.26l-.59,1.88-.47-.17.55-1.76a.72.72,0,0,0,0-.52.63.63,0,0,0-.38-.34c-.33-.12-.73,0-.9.6l-.5,1.59-.47-.16Z" transform="translate(84.93 69.3)"/><path class="cls-6" d="M93.77,157.09a2,2,0,0,1,.08-.43.8.8,0,0,1-.92.23.88.88,0,0,1-.61-1.13.94.94,0,0,1,.69-.65,1.82,1.82,0,0,1,.91.12l.33.13a1.17,1.17,0,0,0,.11-.64.57.57,0,0,0-.37-.33.45.45,0,0,0-.65.29l-.46-.16a1,1,0,0,1,.34-.47,1.1,1.1,0,0,1,.89,0c.35.13.7.39.74.72a.9.9,0,0,1,0,.45l-.44,1.32s-.12.41-.18.71Zm.11-1.48c-.19-.06-.89-.31-1.07.25a.52.52,0,0,0,.36.66.6.6,0,0,0,.62-.11,1.54,1.54,0,0,0,.35-.69ZM95.11,153l-.85.58L94,153.5l.65-.66Z" transform="translate(84.93 69.3)"/><path class="cls-6" d="M95.78,155.08l.1-.32.46.16-.14.45a.81.81,0,0,1,1-.22.94.94,0,0,1,.59,1.26l-.59,1.88-.47-.17.55-1.76a.72.72,0,0,0,0-.52.67.67,0,0,0-.38-.34c-.33-.12-.72,0-.9.6l-.5,1.59-.46-.16Z" transform="translate(84.93 69.3)"/><path class="cls-6" d="M101,155.22l.46.16-1.12,3.54c0,.06-.08.3-.12.45l-.46-.17.13-.44a.72.72,0,0,1-.31.21,1.08,1.08,0,0,1-.67,0c-.33-.12-1-.57-.62-1.78s1-1.33,1.59-1.12a.88.88,0,0,1,.62.74Zm-.73,1.72a.73.73,0,0,0-.46-.47c-.67-.24-1,.68-1,.86-.16.5-.22,1.1.34,1.3.73.26,1-.64,1.08-.85A1.41,1.41,0,0,0,100.22,156.94Z" transform="translate(84.93 69.3)"/><path class="cls-6" d="M101.67,158.46c-.19.57-.11,1.07.39,1.25a.56.56,0,0,0,.76-.37l.46.17a1,1,0,0,1-.39.5,1.06,1.06,0,0,1-1,.07c-.77-.28-1-1-.69-1.82a1.5,1.5,0,0,1,.9-1.13,1.08,1.08,0,0,1,.73,0c1.1.39.73,1.48.58,1.93Zm1.42.1c.08-.26.21-.83-.36-1-.29-.11-.72,0-.92.57Z" transform="translate(84.93 69.3)"/><path class="cls-6" d="M103.6,160l1.89-1.38-1.24-.44.12-.39,1.77.63-.14.44-2,1.44,1.36.48-.13.4-1.83-.65Z" transform="translate(84.93 69.3)"/><path class="cls-6" d="M96,69.13l.47-.11,2.15,3.27-.49.12-.57-.85-1.49.35-.14,1-.46.11Zm.11,2.35,1.23-.29-1-1.62Z" transform="translate(84.93 69.3)"/><path class="cls-6" d="M98.63,68.5l.55,2.21a1.12,1.12,0,0,0,.31.61.86.86,0,0,0,.82.16.88.88,0,0,0,.62-1.23l-.55-2.19.43-.11.55,2.2a1.62,1.62,0,0,1,0,1,1.25,1.25,0,0,1-.91.75,1.36,1.36,0,0,1-1.28-.28,1.58,1.58,0,0,1-.41-.85l-.54-2.18Z" transform="translate(84.93 69.3)"/><path class="cls-6" d="M103.28,71.11,102.44,68l-1.07.28-.12-.42,2.59-.68.11.42-1.07.28.84,3.14Z" transform="translate(84.93 69.3)"/><path class="cls-6" d="M104.6,67.34a1.38,1.38,0,0,1,.93-.77c.88-.25,1.62.22,2,1.43.26.94.19,2-.95,2.3s-1.68-.45-2-1.43A2.3,2.3,0,0,1,104.6,67.34Zm1,2.41a.84.84,0,0,0,.8.13.87.87,0,0,0,.62-.52,2.2,2.2,0,0,0,0-1.24c-.23-.8-.64-1.34-1.37-1.14s-.82,1-.61,1.73A2,2,0,0,0,105.64,69.75Z" transform="translate(84.93 69.3)"/><path class="cls-6" d="M107.56,66.1l1.06-.32a1,1,0,0,1,.95,0,1.1,1.1,0,0,1,.44.62,1,1,0,0,1-.05.76c-.11.24-.29.42-.87.59l-.51.15.46,1.57-.43.13Zm.9,1.41.52-.15c.29-.09.73-.25.56-.82s-.58-.43-.81-.36l-.61.18Z" transform="translate(84.93 69.3)"/><path class="cls-6" d="M111.11,68.23l.48-.15.18.59-.48.15Z" transform="translate(84.93 69.3)"/><path class="cls-6" d="M113,64.41l.48,1.51,1.5-.49-.49-1.5.44-.14,1.14,3.5-.44.14-.51-1.58-1.5.48.51,1.59-.43.14-1.14-3.5Z" transform="translate(84.93 69.3)"/><path class="cls-6" d="M116.14,63.4l.74,2.16a1.06,1.06,0,0,0,.35.57.85.85,0,0,0,.84.1.87.87,0,0,0,.51-1.27l-.73-2.14.42-.14.73,2.14a1.53,1.53,0,0,1,.06,1,1.28,1.28,0,0,1-.85.83,1.36,1.36,0,0,1-1.29-.17,1.65,1.65,0,0,1-.49-.82l-.72-2.12Z" transform="translate(84.93 69.3)"/><path class="cls-6" d="M119,62.42l.77-.28,1.91,2.53-.13-3.18.71-.26,1.26,3.46-.43.16L122,61.73l.11,3.49-.41.15-2.11-2.74,1.13,3.1-.42.15Z" transform="translate(84.93 69.3)"/><path class="cls-6" d="M123,60.94l1.11-.42a1,1,0,0,1,.88-.05.9.9,0,0,1,.45.53.82.82,0,0,1-.22,1,.85.85,0,0,1,.94.62,1,1,0,0,1-.07.92,1.18,1.18,0,0,1-.64.43l-1.12.43Zm1,1.3.6-.24a.58.58,0,0,0,.43-.79c-.2-.51-.59-.36-.82-.27l-.62.23Zm.61,1.59.74-.28a.6.6,0,0,0,.38-.83.6.6,0,0,0-.82-.36l-.75.28Z" transform="translate(84.93 69.3)"/><path class="cls-6" d="M125.7,59.88l1.93-.78.17.41-1.51.6.44,1.07,1.43-.58.16.4-1.43.58.46,1.13,1.54-.62.16.41-2,.8Z" transform="translate(84.93 69.3)"/><path class="cls-6" d="M128.28,58.83l1.09-.46a1.37,1.37,0,0,1,.77-.14.86.86,0,0,1,.63.55,1,1,0,0,1,0,.69.76.76,0,0,1-.26.37c.32,0,.52,0,.74.46a6,6,0,0,0,.64,1l-.45.19a7.51,7.51,0,0,1-.52-.84c-.26-.47-.43-.57-.94-.35l-.53.23.65,1.53-.42.18Zm1,1.29.67-.28a1,1,0,0,0,.37-.25.54.54,0,0,0,0-.53.56.56,0,0,0-.84-.29l-.67.28Z" transform="translate(84.93 69.3)"/><path class="cls-6" d="M132.38,59.91c.12.23.34.65,1,.34s.52-.75.44-.92c-.17-.38-.47-.33-.95-.25a3,3,0,0,1-1,.07.87.87,0,0,1-.62-.53,1.12,1.12,0,0,1,.72-1.49,1.2,1.2,0,0,1,1-.05,1,1,0,0,1,.44.49l-.44.19c-.21-.41-.57-.36-.87-.22s-.57.5-.42.84.35.32.77.25a3.09,3.09,0,0,1,1.13-.08.92.92,0,0,1,.61.53,1.16,1.16,0,0,1-.73,1.59,1.28,1.28,0,0,1-1.11,0,1.26,1.26,0,0,1-.48-.6Z" transform="translate(84.93 69.3)"/><path class="cls-6" d="M136,59.43l-1.38-2.93-1,.47-.18-.39,2.42-1.14.18.39-1,.47,1.38,2.94Z" transform="translate(84.93 69.3)"/><path class="cls-6" d="M136.63,55.51a1.43,1.43,0,0,1,.77-.94c.82-.41,1.63-.08,2.19,1,.44.87.56,1.91-.5,2.43s-1.73-.13-2.18-1A2.29,2.29,0,0,1,136.63,55.51Zm1.48,2.17a.84.84,0,0,0,.8,0,.87.87,0,0,0,.51-.63,2.16,2.16,0,0,0-.27-1.2c-.37-.75-.87-1.21-1.55-.87s-.61,1.14-.27,1.82A1.93,1.93,0,0,0,138.11,57.68Z" transform="translate(84.93 69.3)"/><path class="cls-6" d="M139.29,53.73l.56-.3,2.87,1.92-1.43-2.69.37-.2,1.73,3.25-.52.28-3-2,1.47,2.76L141,57Z" transform="translate(84.93 69.3)"/><path class="cls-6" d="M143.2,54.05l1-.56.18.34-1,.56Z" transform="translate(84.93 69.3)"/><path class="cls-6" d="M143.6,51.36l.4-.23,1.84,3.2-.4.23Z" transform="translate(84.93 69.3)"/><path class="cls-6" d="M149.17,52.33l-.47.29c-.06,0-.34.21-.52.34a5.83,5.83,0,0,1-.48.35c-.68.41-1.53.24-2.2-.88a2.25,2.25,0,0,1-.4-1.45,1.41,1.41,0,0,1,.69-1c.94-.57,1.73.09,2.19.85a2,2,0,0,1,.3,1.66,2.33,2.33,0,0,1,.47-.37L149,52Zm-1.64.62c.81-.49.29-1.49.09-1.82-.49-.81-1.1-1.11-1.65-.77-.78.47-.26,1.49-.05,1.83C146.23,52.71,146.86,53.36,147.53,53Z" transform="translate(84.93 69.3)"/><path class="cls-6" d="M148,48.7l1.25,1.91a1.09,1.09,0,0,0,.49.47.83.83,0,0,0,.83-.11.89.89,0,0,0,.18-1.37l-1.24-1.89.38-.24,1.24,1.9a1.6,1.6,0,0,1,.31,1,1.3,1.3,0,0,1-.62,1,1.37,1.37,0,0,1-1.3.15,1.59,1.59,0,0,1-.67-.67L147.62,49Z" transform="translate(84.93 69.3)"/><path class="cls-6" d="M150.54,47l.37-.26,2.11,3-.38.26Z" transform="translate(84.93 69.3)"/><path class="cls-6" d="M156.19,47.46l-.44.33c-.05,0-.32.24-.48.38s-.37.34-.45.4c-.64.47-1.5.38-2.27-.67a2.3,2.3,0,0,1-.53-1.42,1.42,1.42,0,0,1,.59-1.06c.89-.65,1.74-.07,2.26.64a2.06,2.06,0,0,1,.45,1.63,2.29,2.29,0,0,1,.44-.41l.19-.14Zm-1.57.77c.76-.57.15-1.51-.08-1.82-.56-.76-1.19-1-1.71-.62-.74.54-.12,1.5.11,1.83C153.3,48.11,154,48.7,154.62,48.23Z" transform="translate(84.93 69.3)"/><path class="cls-6" d="M154.72,43.93l1.44,1.76a1,1,0,0,0,.53.42.88.88,0,0,0,.82-.19.89.89,0,0,0,0-1.38l-1.43-1.75.35-.28,1.43,1.76a1.55,1.55,0,0,1,.41.93,1.3,1.3,0,0,1-.51,1.07,1.33,1.33,0,0,1-1.27.28,1.6,1.6,0,0,1-.74-.59l-1.41-1.74Z" transform="translate(84.93 69.3)"/><path class="cls-6" d="M157,42.05l1.54-1.38.29.32-1.2,1.08.76.85,1.15-1,.29.32-1.15,1,.81.91,1.24-1.1.3.34-1.58,1.4Z" transform="translate(84.93 69.3)"/><path class="cls-6" d="M10.81,159l.16-.53,4.44-.23-.17.54-1.16.07-.51,1.66.92.71-.16.51Zm2.36,1.22.42-1.36-2.16.06Z" transform="translate(84.93 69.3)"/><path class="cls-6" d="M12.66,157.25l.16-.52,2.44-.12-2-1.45.16-.52,2.44,1.94-.15.48Z" transform="translate(84.93 69.3)"/><path class="cls-6" d="M15.73,154.77l.17-.55.66.2-.17.56Z" transform="translate(84.93 69.3)"/><path class="cls-6" d="M13.26,151l.15-.5,3.5,1.08.51-1.68.49.15-.66,2.17Z" transform="translate(84.93 69.3)"/><path class="cls-6" d="M18.56,147.9a2,2,0,0,1-.43-.08.83.83,0,0,1,.27.92.84.84,0,0,1-1.09.63,1,1,0,0,1-.68-.68,2,2,0,0,1,.08-.93c0-.12.07-.19.12-.33-.34-.1-.49-.15-.64-.1a.59.59,0,0,0-.31.38.47.47,0,0,0,.31.65l-.14.46a1,1,0,0,1-.47-.33,1.09,1.09,0,0,1-.05-.9,1,1,0,0,1,.68-.76.9.9,0,0,1,.45,0l1.32.42a6.61,6.61,0,0,0,.71.18Zm-1.47-.1c-.05.19-.27.91.29,1.08a.49.49,0,0,0,.64-.37.63.63,0,0,0-.14-.63,1.45,1.45,0,0,0-.69-.34Z" transform="translate(84.93 69.3)"/><path class="cls-6" d="M18.2,146.13a.49.49,0,0,0,.67-.39.52.52,0,0,0,0-.49.4.4,0,0,0-.24-.16c-.27-.09-.37.07-.58.42s-.54.88-1.12.7a.9.9,0,0,1-.54-1.23c.09-.31.33-.72.7-.77a.93.93,0,0,1,.43.06l-.15.48a.42.42,0,0,0-.6.34c0,.07-.16.51.24.63s.38-.13.46-.24c.4-.64.49-.77.69-.88a.8.8,0,0,1,.57,0,.92.92,0,0,1,.6.55,1.36,1.36,0,0,1,0,.8.9.9,0,0,1-1.2.7Z" transform="translate(84.93 69.3)"/><path class="cls-6" d="M16.48,140.43l.16-.54,4.44-.22-.17.54-1.16.07-.51,1.66.92.71-.15.51Zm2.36,1.22.42-1.36-2.16.06Z" transform="translate(84.93 69.3)"/><path class="cls-6" d="M18.82,138.45l-.37-.1.14-.47L19,138a.87.87,0,0,1-.24-.94.82.82,0,0,1,.77-.65.94.94,0,0,1-.26-1,.91.91,0,0,1,1.26-.62l1.87.57-.15.48-1.78-.55a.72.72,0,0,0-.44,0,.56.56,0,0,0-.39.4.63.63,0,0,0,.13.62,1.21,1.21,0,0,0,.56.29l1.55.48-.14.47L19.9,137a.55.55,0,0,0-.77.36.7.7,0,0,0,.13.64,1.14,1.14,0,0,0,.53.28l1.58.49-.15.47Z" transform="translate(84.93 69.3)"/><path class="cls-6" d="M19.06,131.65l.61.85-.1.32-.67-.65Zm2.4,2.15c.57.19,1.06.1,1.22-.41a.59.59,0,0,0-.4-.76l.15-.47a1.1,1.1,0,0,1,.51.39,1.08,1.08,0,0,1,.11,1c-.24.78-.9,1-1.78.72a1.58,1.58,0,0,1-1.15-.89,1.18,1.18,0,0,1,0-.75c.35-1.12,1.44-.75,1.89-.61Zm0-1.43c-.27-.09-.83-.21-1,.37-.09.3,0,.73.61.93Z" transform="translate(84.93 69.3)"/><path class="cls-6" d="M21.31,131l-.57-.14.15-.48.54.16a.74.74,0,0,1-.37-.77,1.27,1.27,0,0,1,.09-.32l.51.15a.56.56,0,0,0-.05.08,1.09,1.09,0,0,0-.05.14c-.17.55.16.79.63.94l1.48.45-.15.47Z" transform="translate(84.93 69.3)"/><path class="cls-6" d="M20.06,128.74l.12-.57.58.12-.12.57Zm1.24.21.1-.48,2.84.59-.1.48Z" transform="translate(84.93 69.3)"/><path class="cls-6" d="M22.81,126.27c-.14,0-.61-.08-.7.38-.14.67.72.84.93.89.58.12,1.15.1,1.26-.41a.59.59,0,0,0-.5-.68l.1-.48a1,1,0,0,1,.8,1.24,1.09,1.09,0,0,1-.54.77,1.71,1.71,0,0,1-1.15.08c-1.18-.25-1.4-1-1.29-1.48a1,1,0,0,1,.51-.71,1.1,1.1,0,0,1,.68-.09Z" transform="translate(84.93 69.3)"/><path class="cls-6" d="M25.29,124a2,2,0,0,1-.43,0,.9.9,0,0,1-.68,1.62,1,1,0,0,1-.74-.62,1.94,1.94,0,0,1,0-.93l.09-.34c-.35-.07-.5-.1-.65,0a.59.59,0,0,0-.28.41.47.47,0,0,0,.38.61l-.1.48a1,1,0,0,1-.5-.29,1.12,1.12,0,0,1-.14-.89,1,1,0,0,1,.61-.82.84.84,0,0,1,.45,0l1.36.3a6.33,6.33,0,0,0,.72.1Zm-1.47,0c0,.19-.19.92.39,1a.49.49,0,0,0,.6-.43.63.63,0,0,0-.19-.61,1.56,1.56,0,0,0-.72-.27A2.3,2.3,0,0,0,23.82,124.05Z" transform="translate(84.93 69.3)"/><path class="cls-6" d="M24.77,122.28a.5.5,0,0,0,.63-.45.52.52,0,0,0-.09-.49.44.44,0,0,0-.25-.14c-.28,0-.36.11-.54.48s-.46.93-1.05.8a.9.9,0,0,1-.66-1.17,1,1,0,0,1,.64-.84,1.13,1.13,0,0,1,.42,0l-.1.49a.43.43,0,0,0-.56.4c0,.07-.11.52.29.61a.4.4,0,0,0,.44-.29c.34-.67.41-.81.6-.93a.73.73,0,0,1,.57-.09.91.91,0,0,1,.65.5,1.36,1.36,0,0,1,0,.8.89.89,0,0,1-1.13.8Z" transform="translate(84.93 69.3)"/><polyline class="cls-4" points="96.94 245.99 112.28 195.88 117.22 160.17 106.52 134.2 105.34 121.7"/><path class="cls-6" d="M45.56,35.16l.55-.1,2.35,3.83-.55.1-.63-1-1.72.3-.17,1.13-.53.09Zm.07,2.64,1.4-.24-1.1-1.88Z" transform="translate(84.93 69.3)"/><path class="cls-6" d="M48,36l.54-.09,1.29,2.11.33-2.39.53-.09-.53,3-.49.09Z" transform="translate(84.93 69.3)"/><path class="cls-6" d="M51.64,37.64l.57-.1.14.68-.57.1Z" transform="translate(84.93 69.3)"/><path class="cls-6" d="M53.84,33.73l.5-.09.76,3.58,1.72-.29.1.5-2.22.39Z" transform="translate(84.93 69.3)"/><path class="cls-6" d="M59.09,37.06a1.6,1.6,0,0,1-.14-.42.79.79,0,0,1-.68.65.88.88,0,0,1-1.09-.68,1,1,0,0,1,.28-.91,1.85,1.85,0,0,1,.85-.34l.36,0c-.08-.35-.11-.51-.23-.61a.59.59,0,0,0-.48-.12.46.46,0,0,0-.42.58l-.48.08a.92.92,0,0,1,.07-.57,1.25,1.25,0,0,1,1.76-.19,1,1,0,0,1,.18.42l.26,1.36a7,7,0,0,0,.2.71Zm-.63-1.35c-.19,0-.92.17-.8.74a.5.5,0,0,0,.63.4.59.59,0,0,0,.49-.4,1.5,1.5,0,0,0,0-.77Z" transform="translate(84.93 69.3)"/><path class="cls-6" d="M60.94,32.5l1.24-.21a1.21,1.21,0,0,1,1.08.15,1.27,1.27,0,0,1,.44.75,1.14,1.14,0,0,1-.13.85c-.15.24-.38.42-1,.54l-.6.1.38,1.82-.51.09Zm.89,1.71.61-.11c.34-.06.85-.17.71-.84s-.62-.56-.88-.51l-.72.12Z" transform="translate(84.93 69.3)"/><path class="cls-6" d="M66.5,35.78a1.6,1.6,0,0,1-.14-.42.78.78,0,0,1-.68.65.88.88,0,0,1-1.09-.68,1,1,0,0,1,.28-.91,1.85,1.85,0,0,1,.85-.34l.36,0c-.08-.35-.11-.51-.23-.62a.62.62,0,0,0-.48-.11.46.46,0,0,0-.42.58l-.48.08a.92.92,0,0,1,.07-.57,1.25,1.25,0,0,1,1.76-.19,1,1,0,0,1,.18.42L66.74,35s.1.42.2.7Zm-.63-1.34c-.19,0-.93.16-.8.73a.51.51,0,0,0,.63.41.61.61,0,0,0,.49-.41,1.46,1.46,0,0,0,0-.76Z" transform="translate(84.93 69.3)"/><path class="cls-6" d="M67.26,33.09l-.09-.37.49-.09.08.42a.85.85,0,0,1,.72-.63.86.86,0,0,1,1,.38.9.9,0,0,1,.75-.68,1,1,0,0,1,1.16.85l.4,1.9-.49.09-.38-1.82a.83.83,0,0,0-.18-.42.59.59,0,0,0-.54-.16.64.64,0,0,0-.49.39,1.3,1.3,0,0,0,0,.63L70,35.17l-.49.09-.39-1.88a.59.59,0,0,0-.69-.53.68.68,0,0,0-.5.41,1.11,1.11,0,0,0,0,.6l.34,1.61-.48.09Z" transform="translate(84.93 69.3)"/><path class="cls-6" d="M72.11,32.34c0-.12,0-.19-.11-.46l.48-.08.11.47a1,1,0,0,1,.77-.67c.55-.1,1.17.23,1.39,1.29s-.24,1.61-.85,1.72a.89.89,0,0,1-.88-.29l.29,1.41-.47.08Zm1.62,1.89a.6.6,0,0,0,.49-.37,1.81,1.81,0,0,0,0-.92c-.11-.51-.36-1-.93-.92-.77.13-.58,1-.52,1.29S73.05,34.35,73.73,34.23Z" transform="translate(84.93 69.3)"/><path class="cls-6" d="M77.32,33.91a2,2,0,0,1-.13-.42.78.78,0,0,1-.69.65.87.87,0,0,1-1.08-.68.94.94,0,0,1,.28-.91,1.81,1.81,0,0,1,.85-.34l.35,0c-.07-.35-.1-.51-.22-.61a.6.6,0,0,0-.49-.12.46.46,0,0,0-.42.58l-.48.08a1,1,0,0,1,.07-.57,1.26,1.26,0,0,1,1.77-.19,1.13,1.13,0,0,1,.18.42l.26,1.36a6.15,6.15,0,0,0,.19.71Zm-.62-1.34c-.2,0-.93.16-.81.73a.52.52,0,0,0,.64.41A.6.6,0,0,0,77,33.3a1.43,1.43,0,0,0,0-.76A1,1,0,0,0,76.7,32.57Z" transform="translate(84.93 69.3)"/><path class="cls-6" d="M198.08,48.56a.79.79,0,0,0-.55-1c-.86-.31-1.32.62-1.53,1.28s-.3,1.63.51,1.92a.72.72,0,0,0,1-.39l.54.19a1.24,1.24,0,0,1-1.67.64c-1.25-.45-1.1-1.77-.85-2.54s1-2,2.21-1.54a1.29,1.29,0,0,1,.91,1.58Z" transform="translate(84.93 69.3)"/><path class="cls-6" d="M199.79,52.4a2.05,2.05,0,0,1,.09-.43.78.78,0,0,1-.92.23.87.87,0,0,1-.61-1.12,1,1,0,0,1,.69-.66,1.83,1.83,0,0,1,.91.12c.12,0,.19.08.33.14.11-.34.15-.49.1-.65a.58.58,0,0,0-.37-.33.46.46,0,0,0-.64.29l-.46-.16a.93.93,0,0,1,.34-.46,1.06,1.06,0,0,1,.89,0c.35.13.7.39.74.72a.89.89,0,0,1,0,.45l-.44,1.32s-.12.41-.18.71Zm.12-1.47c-.19-.07-.89-.32-1.07.24a.51.51,0,0,0,.36.66.57.57,0,0,0,.62-.11,1.55,1.55,0,0,0,.35-.68Z" transform="translate(84.93 69.3)"/><path class="cls-6" d="M202.29,48.86l.46.17-1.26,4-.46-.16Z" transform="translate(84.93 69.3)"/><path class="cls-6" d="M203.65,49.35l.46.16-1.26,4-.46-.16Z" transform="translate(84.93 69.3)"/><path class="cls-6" d="M204.44,52.61c-.2.57-.12,1.07.39,1.25a.55.55,0,0,0,.75-.36l.46.16a.93.93,0,0,1-.39.5,1,1,0,0,1-1,.07c-.78-.27-1-.94-.7-1.82a1.54,1.54,0,0,1,.9-1.13,1.18,1.18,0,0,1,.74,0c1.1.4.73,1.48.58,1.93Zm1.41.1c.09-.26.22-.83-.35-1-.3-.11-.73,0-.93.58Z" transform="translate(84.93 69.3)"/><path class="cls-6" d="M208.56,54.22c-.08.28-.21.8.6,1.09s1-.22,1.05-.41c.15-.45-.15-.65-.6-1a3.38,3.38,0,0,1-.85-.69,1,1,0,0,1-.12-.91,1.22,1.22,0,0,1,1.72-.69,1.48,1.48,0,0,1,.87.75,1.18,1.18,0,0,1,0,.75l-.51-.18a.69.69,0,0,0-.55-.87c-.49-.17-.87,0-1,.37s.06.54.45.81c.77.54.85.6,1,.83a1,1,0,0,1,.1.92,1.25,1.25,0,0,1-1.78.74,1.23,1.23,0,0,1-.91-1.72Z" transform="translate(84.93 69.3)"/><path class="cls-6" d="M212.61,57a2,2,0,0,1,.08-.42.79.79,0,0,1-.91.23.87.87,0,0,1-.61-1.13.91.91,0,0,1,.68-.65,1.71,1.71,0,0,1,.91.12l.33.13c.11-.34.16-.49.11-.64a.62.62,0,0,0-.37-.34.46.46,0,0,0-.65.3l-.46-.17a.83.83,0,0,1,1.23-.47,1,1,0,0,1,.74.71.93.93,0,0,1-.05.46l-.43,1.31a7.23,7.23,0,0,0-.19.71Zm.11-1.47c-.19-.07-.89-.32-1.07.25a.52.52,0,0,0,.36.66.6.6,0,0,0,.62-.11,1.5,1.5,0,0,0,.35-.69Z" transform="translate(84.93 69.3)"/><path class="cls-6" d="M214.62,55l.1-.33.46.17-.14.45a.81.81,0,0,1,1-.22.94.94,0,0,1,.59,1.26L216,58.16l-.47-.17.56-1.76a.72.72,0,0,0,0-.52.64.64,0,0,0-.37-.34c-.34-.12-.73,0-.91.6l-.5,1.59-.46-.16Z" transform="translate(84.93 69.3)"/><path class="cls-6" d="M217.33,55.54l.44.16.18-.58h.51l-.24.75.55.19-.12.38-.55-.19-.52,1.66c-.05.14-.12.37.21.48a1.12,1.12,0,0,0,.23.06l-.13.4a1.84,1.84,0,0,1-.39-.1c-.42-.15-.58-.36-.44-.82l.59-1.84-.44-.16Z" transform="translate(84.93 69.3)"/><path class="cls-6" d="M220,59.57a1.57,1.57,0,0,1,.09-.43.8.8,0,0,1-.92.23.87.87,0,0,1-.61-1.12,1,1,0,0,1,.69-.66,1.85,1.85,0,0,1,.91.12l.33.13c.1-.34.15-.49.1-.64a.6.6,0,0,0-.37-.33.44.44,0,0,0-.64.29l-.46-.16a.93.93,0,0,1,.34-.47,1.08,1.08,0,0,1,.88,0,1.07,1.07,0,0,1,.75.72,1,1,0,0,1-.05.45L220.56,59a6.61,6.61,0,0,0-.18.71Zm.11-1.48c-.18-.06-.88-.31-1.06.25a.51.51,0,0,0,.36.66.61.61,0,0,0,.62-.11,1.45,1.45,0,0,0,.34-.69A1.69,1.69,0,0,0,220.07,58.09Z" transform="translate(84.93 69.3)"/><path class="cls-6" d="M223.8,56.5l1.26.45a1.63,1.63,0,0,1,.76.48,1.07,1.07,0,0,1,.14,1,1.1,1.1,0,0,1-.48.62,1,1,0,0,1-.5.11c.31.22.41.44.3,1a6,6,0,0,0-.17,1.33l-.53-.19a9.37,9.37,0,0,1,.17-1.11c.13-.6.06-.81-.54-1l-.62-.22-.56,1.8-.49-.17Zm-.07,1.89.78.27a1.06,1.06,0,0,0,.49.08.57.57,0,0,0,.4-.43.65.65,0,0,0-.5-.9l-.77-.27Z" transform="translate(84.93 69.3)"/><path class="cls-6" d="M227.79,59.19a1.39,1.39,0,0,1,.75,1.88c-.26.81-.88,1.34-1.72,1a1.36,1.36,0,0,1-.75-1.87C226.28,59.55,226.82,58.85,227.79,59.19ZM227,61.73c.35.12.84,0,1.1-.85s0-1.16-.38-1.31-.84-.06-1.11.8C226.38,60.94,226.43,61.54,227,61.73Z" transform="translate(84.93 69.3)"/><path class="cls-6" d="M229.34,62a.52.52,0,0,0,.38.69.5.5,0,0,0,.49,0,.53.53,0,0,0,.16-.23c.09-.27-.07-.38-.41-.61s-.87-.58-.68-1.16a.86.86,0,0,1,1.22-.5c.31.11.71.36.75.75a.89.89,0,0,1-.06.42l-.47-.16a.46.46,0,0,0-.33-.63c-.07,0-.5-.17-.63.22a.42.42,0,0,0,.24.48c.62.42.75.52.85.73a.78.78,0,0,1,0,.58.9.9,0,0,1-.56.58,1.35,1.35,0,0,1-.79-.07.93.93,0,0,1-.67-1.24Z" transform="translate(84.93 69.3)"/><path class="cls-6" d="M232.77,64.12a1.57,1.57,0,0,1,.09-.43.79.79,0,0,1-.92.23.86.86,0,0,1-.61-1.12,1,1,0,0,1,.69-.66,1.85,1.85,0,0,1,.91.12,2.08,2.08,0,0,1,.32.14c.11-.34.16-.49.11-.65a.6.6,0,0,0-.37-.33.44.44,0,0,0-.64.29l-.46-.16a.91.91,0,0,1,.33-.46,1.06,1.06,0,0,1,.89,0c.36.13.7.39.74.72a.89.89,0,0,1,0,.45l-.43,1.32a5.17,5.17,0,0,0-.18.71Zm.11-1.47c-.18-.07-.88-.32-1.06.24a.5.5,0,0,0,.36.66.56.56,0,0,0,.61-.11c.17-.15.22-.3.35-.69Z" transform="translate(84.93 69.3)"/></g><text class="cls-13" transform="translate(328.6 75.87) rotate(0.62)">N</text><polygon class="cls-6" points="333.89 82.47 332.39 80.55 330.89 82.48 332.06 82.48 332.07 86.7 332.74 86.7 332.73 82.48 333.89 82.47"/><path class="cls-14" d="M254.48,13.24a8.16,8.16,0,1,0-9,12.07,7.87,7.87,0,0,0,2,.26,8.16,8.16,0,0,0,7-12.33Z" transform="translate(84.93 69.3)"/></g></g></svg>