<svg xmlns="http://www.w3.org/2000/svg" viewBox="0 0 472.96 258.06"><defs><style>.cls-1,.cls-11,.cls-14,.cls-2,.cls-3{fill:none;}.cls-1,.cls-2{stroke:#706f6f;}.cls-1,.cls-10,.cls-11,.cls-14,.cls-2,.cls-3{stroke-miterlimit:10;}.cls-1,.cls-10,.cls-11,.cls-2{stroke-width:0.5px;}.cls-1{opacity:0.51;}.cls-14,.cls-3{stroke:#090a0a;}.cls-3{stroke-width:0.75px;}.cls-4{font-size:10.85px;font-family:MyriadPro-Regular, Myriad Pro;}.cls-5{letter-spacing:-0.05em;}.cls-6{letter-spacing:-0.05em;}.cls-7{letter-spacing:-0.07em;}.cls-8{letter-spacing:0em;}.cls-9{letter-spacing:0em;}.cls-10{fill:#ddd;}.cls-10,.cls-11{stroke:#8d8d8c;}.cls-12{font-size:8.62px;font-family:SinkinSans-500Medium, Sinkin Sans;font-weight:500;}.cls-12,.cls-13{fill:#090a0a;}.cls-14{stroke-width:0.68px;}.cls-15{font-size:9px;fill:#3c3c3b;font-family:MyriadPro-Semibold, Myriad Pro;font-weight:600;}.cls-16{letter-spacing:-0.04em;}.cls-17{letter-spacing:0.01em;}</style></defs><g id="Capa_2" data-name="Capa 2"><g id="Capa_1-2" data-name="Capa 1"><polygon class="cls-1" points="61.32 256.03 86.89 256.05 86.88 257.17 88.02 257.16 87.98 250.59 118.19 250.54 118.23 256.24 119.54 256.24 119.54 216.34 86.85 216.3 86.85 217.14 61.25 217.03 61.32 256.03"/><polygon class="cls-1" points="61.32 168.93 86.89 168.91 86.88 167.79 88.02 167.8 87.98 174.37 118.19 174.41 118.23 168.56 119.54 168.56 119.54 208.76 86.85 208.8 86.85 207.81 61.25 207.81 61.32 168.93"/><polygon class="cls-1" points="119.56 255.29 144.5 255.26 144.5 256.25 145.81 256.25 145.81 250.41 177.15 250.38 177.18 216.35 119.54 216.34 119.56 255.29"/><polygon class="cls-1" points="178.37 174.4 178.37 208.89 179.66 208.89 179.66 203.19 199.94 203.25 199.94 208.89 242.01 208.83 241.95 169.91 196 169.93 196.06 168.64 194.24 168.64 194.24 174.52 178.37 174.4"/><polygon class="cls-1" points="119.56 169.59 144.5 169.62 144.5 168.63 145.81 168.63 145.81 174.47 177.15 174.5 177.18 208.82 119.54 208.75 119.56 169.59"/><polygon class="cls-1" points="241.95 169.91 265.66 169.94 265.63 168.61 267.49 168.61 267.49 171.55 290.15 171.58 290.18 177.21 306.18 177.21 306.18 171.93 307.52 171.93 307.5 208.89 242.01 208.83 241.95 169.91"/><polygon class="cls-1" points="241.93 255.13 265.72 255.1 265.69 256.34 267.55 256.34 267.55 253.36 290.21 253.33 290.19 247.76 306.33 247.76 306.33 252.91 307.53 252.91 307.54 216.27 242.02 216.24 241.93 255.13"/><polygon class="cls-1" points="307.56 217 344.75 217.05 344.76 212.34 374.2 212.34 374.1 225.77 374.85 225.77 374.85 226.99 366.75 226.96 366.75 232.97 372.44 232.98 372.49 252.09 364.52 252.09 364.52 253.18 362.58 253.18 362.58 248.39 348.37 248.39 348.4 252.94 307.52 252.91 307.56 217"/><polygon class="cls-1" points="307.52 207.84 344.75 207.79 344.76 212.34 374.2 212.34 374.1 199.07 374.85 199.07 374.85 197.85 366.75 197.88 366.75 191.87 372.44 191.86 372.49 172.75 364.52 172.75 364.52 171.66 362.58 171.66 362.58 176.45 348.37 176.43 348.37 171.85 307.52 171.93 307.52 207.84"/><polygon class="cls-1" points="0.25 255.03 0.31 226.42 3.41 226.42 3.48 212.42 52.84 212.55 52.83 216.98 61.25 217.03 61.32 256.07 52.78 256.01 52.87 257.35 51.49 257.38 51.52 251.97 36.14 251.97 36.16 253.06 34.83 253.13 34.83 245.01 20.88 244.91 20.86 254.96 0.25 255.03"/><polygon class="cls-1" points="0.25 169.81 0.31 198.7 3.41 198.7 3.47 212.42 52.84 212.55 52.86 207.75 61.25 207.81 61.32 168.89 52.78 168.95 52.87 167.77 51.49 167.75 51.52 172.88 36.14 172.88 36.16 171.78 34.83 171.71 34.83 180.12 20.88 180.21 20.86 169.88 0.25 169.81"/><polyline class="cls-2" points="187.71 216.35 178.39 216.35 178.45 250.54"/><polyline class="cls-2" points="194.44 240.55 194.44 249.15 178.5 249.27 178.5 250.47 187.62 250.47 187.68 257.81 188.93 257.81 188.95 256.42 241.92 256.48 242.02 216.24"/><rect class="cls-2" x="197.42" y="220.05" width="7.4" height="10.85"/><rect class="cls-2" x="210.16" y="220.05" width="7.4" height="10.85"/><rect class="cls-2" x="223.1" y="220.05" width="7.4" height="10.85"/><polyline class="cls-2" points="229.59 219.24 233.3 219.27 233.38 234.67 194.51 234.61 194.44 219.18 198.28 219.22"/><rect class="cls-2" x="205.51" y="244.6" width="25.98" height="0.62"/><line class="cls-2" x1="206.46" y1="234.64" x2="206.46" y2="244.6"/><line class="cls-2" x1="208.21" y1="234.64" x2="208.21" y2="244.6"/><line class="cls-2" x1="209.92" y1="234.64" x2="209.92" y2="244.6"/><line class="cls-2" x1="211.67" y1="234.64" x2="211.67" y2="244.6"/><line class="cls-2" x1="213.38" y1="234.64" x2="213.38" y2="244.6"/><line class="cls-2" x1="215.13" y1="234.64" x2="215.13" y2="244.6"/><line class="cls-2" x1="216.79" y1="234.64" x2="216.79" y2="244.6"/><line class="cls-2" x1="218.55" y1="234.64" x2="218.55" y2="244.6"/><line class="cls-2" x1="220.3" y1="234.64" x2="220.3" y2="244.6"/><line class="cls-2" x1="222.05" y1="234.64" x2="222.05" y2="244.6"/><line class="cls-2" x1="223.76" y1="234.64" x2="223.76" y2="244.6"/><line class="cls-2" x1="225.52" y1="234.64" x2="225.52" y2="244.6"/><line class="cls-2" x1="227.22" y1="234.64" x2="227.22" y2="244.6"/><line class="cls-2" x1="228.98" y1="234.64" x2="228.98" y2="244.6"/><line class="cls-2" x1="230.64" y1="234.64" x2="230.64" y2="244.6"/><line class="cls-2" x1="206.41" y1="239.57" x2="230.73" y2="239.57"/><line class="cls-2" x1="206.46" y1="245.31" x2="206.46" y2="255.12"/><line class="cls-2" x1="208.21" y1="245.31" x2="208.21" y2="255.12"/><line class="cls-2" x1="209.92" y1="245.31" x2="209.92" y2="255.12"/><line class="cls-2" x1="211.67" y1="245.31" x2="211.67" y2="255.12"/><line class="cls-2" x1="213.38" y1="245.31" x2="213.38" y2="255.12"/><line class="cls-2" x1="215.13" y1="245.31" x2="215.13" y2="255.12"/><line class="cls-2" x1="216.79" y1="245.31" x2="216.79" y2="255.12"/><line class="cls-2" x1="218.55" y1="245.31" x2="218.55" y2="255.12"/><line class="cls-2" x1="220.3" y1="245.31" x2="220.3" y2="255.12"/><line class="cls-2" x1="222.05" y1="245.31" x2="222.05" y2="255.12"/><line class="cls-2" x1="223.76" y1="245.31" x2="223.76" y2="255.12"/><line class="cls-2" x1="225.52" y1="245.31" x2="225.52" y2="255.12"/><line class="cls-2" x1="227.22" y1="245.31" x2="227.22" y2="255.12"/><line class="cls-2" x1="228.98" y1="245.31" x2="228.98" y2="255.12"/><line class="cls-2" x1="230.64" y1="245.31" x2="230.64" y2="255.12"/><line class="cls-2" x1="206.41" y1="250.17" x2="230.73" y2="250.17"/><line class="cls-3" x1="452.47" y1="37.87" x2="452.47" y2="254.32"/><text class="cls-4" transform="translate(470.24 221.29) rotate(-90)"><tspan class="cls-5">A</tspan><tspan class="cls-6" x="6.07" y="0">V</tspan><tspan x="11.53" y="0">. SAN</tspan><tspan class="cls-7" x="35.21" y="0">T</tspan><tspan class="cls-8" x="39.79" y="0">A </tspan><tspan class="cls-9" x="48.74" y="0">R</tspan><tspan x="54.61" y="0">OSA DE MOLLE 3948</tspan></text><polygon class="cls-10" points="417.43 212.61 413.84 36.27 348.52 37.59 347.35 212.34 417.43 212.61"/><line class="cls-11" x1="348.02" y1="134.71" x2="415.96" y2="134.9"/><line class="cls-11" x1="348.02" y1="102.25" x2="415.33" y2="102.44"/><line class="cls-11" x1="348.65" y1="69.94" x2="414.58" y2="70.13"/><line class="cls-11" x1="347.24" y1="167.24" x2="416.6" y2="167.43"/><text class="cls-12" transform="translate(432.21 18.55) rotate(-108.96)">N</text><polygon class="cls-13" points="437.46 10.04 435.9 12.48 438.66 13.38 438.19 12.08 442.91 10.39 442.64 9.65 437.93 11.34 437.46 10.04"/><path class="cls-14" d="M435.34,3.83a9.69,9.69,0,1,0,17.09,5.32,10,10,0,0,0-.52-2.39,9.7,9.7,0,0,0-10-6.38A9.65,9.65,0,0,0,435.34,3.83Z"/><text class="cls-15" transform="translate(366.47 195.49)"><tspan class="cls-16">L</tspan><tspan x="4.09" y="0">O</tspan><tspan class="cls-17" x="10.42" y="0">C</tspan><tspan x="15.78" y="0">AL 1</tspan></text><text class="cls-15" transform="translate(366.47 155.21)"><tspan class="cls-16">L</tspan><tspan x="4.09" y="0">O</tspan><tspan class="cls-17" x="10.42" y="0">C</tspan><tspan x="15.78" y="0">AL 2</tspan></text><text class="cls-15" transform="translate(366.47 123.44)"><tspan class="cls-16">L</tspan><tspan x="4.09" y="0">O</tspan><tspan class="cls-17" x="10.42" y="0">C</tspan><tspan x="15.78" y="0">AL 3</tspan></text><text class="cls-15" transform="translate(366.47 91.27)"><tspan class="cls-16">L</tspan><tspan x="4.09" y="0">O</tspan><tspan class="cls-17" x="10.42" y="0">C</tspan><tspan x="15.78" y="0">AL 4</tspan></text><text class="cls-15" transform="translate(366.47 57.42)"><tspan class="cls-16">L</tspan><tspan x="4.09" y="0">O</tspan><tspan class="cls-17" x="10.42" y="0">C</tspan><tspan x="15.78" y="0">AL 5</tspan></text></g></g></svg>