<svg xmlns="http://www.w3.org/2000/svg" viewBox="0 0 470.2 257.9"><defs><style>.cls-1{fill:#dedede;}.cls-1,.cls-12{stroke:#8e8e8d;stroke-width:0.5px;}.cls-1,.cls-10,.cls-11,.cls-12,.cls-14,.cls-2,.cls-3,.cls-4,.cls-5,.cls-6,.cls-9{stroke-miterlimit:10;}.cls-2{fill:#8093dc;}.cls-10,.cls-2,.cls-3,.cls-4,.cls-5,.cls-6,.cls-9{stroke:#575756;}.cls-2,.cls-3,.cls-4,.cls-5,.cls-6,.cls-9{stroke-width:0.18px;}.cls-2,.cls-3,.cls-4,.cls-5,.cls-6{opacity:0.51;}.cls-3{fill:#368fc7;}.cls-4{fill:#c4c200;}.cls-5{fill:#d98000;}.cls-6{fill:#80a71f;}.cls-7{fill:#3c3c3b;}.cls-10,.cls-11,.cls-12,.cls-14,.cls-8,.cls-9{fill:none;}.cls-10{stroke-width:0.1px;}.cls-11,.cls-14{stroke:#090a0a;}.cls-11{stroke-width:0.75px;}.cls-13{fill:#090a0a;}.cls-14{stroke-width:0.68px;}</style></defs><g id="Capa_2" data-name="Capa 2"><g id="FRANJA_LOGA" data-name="FRANJA LOGA"><polygon class="cls-1" points="348.36 171.8 348.21 176.43 362.49 176.3 362.42 171.66 364.37 171.66 364.37 172.75 372.33 172.75 372.28 191.86 366.59 191.87 366.53 197.88 374.6 197.85 374.69 199.07 373.94 199.07 373.94 212.26 417.27 212.61 413.68 36.27 348.36 37.59 347.19 171.8 348.36 171.8"/><polygon class="cls-2" points="61.16 256.03 86.73 256.05 86.72 257.17 87.86 257.16 87.82 250.59 118.03 250.54 118.08 256.24 119.38 256.24 119.38 216.34 86.69 216.3 86.69 217.14 61.09 217.03 61.16 256.03"/><polygon class="cls-2" points="61.16 168.93 86.73 168.91 86.72 167.79 87.86 167.8 87.82 174.37 118.03 174.41 118.08 168.56 119.38 168.56 119.38 208.76 86.69 208.8 86.69 207.81 61.09 207.81 61.16 168.93"/><polygon class="cls-2" points="119.4 255.29 144.34 255.26 144.34 256.25 145.65 256.25 145.65 250.41 176.99 250.38 177.02 216.35 119.38 216.34 119.4 255.29"/><polygon class="cls-3" points="178.21 174.4 178.21 208.89 179.5 208.89 179.5 203.19 199.78 203.25 199.78 208.89 241.85 208.83 241.79 169.91 195.84 169.93 195.9 168.64 194.08 168.64 194.08 174.52 178.21 174.4"/><polygon class="cls-2" points="119.4 169.59 144.34 169.62 144.34 168.63 145.65 168.63 145.65 174.47 176.99 174.5 177.02 208.82 119.38 208.75 119.4 169.59"/><polygon class="cls-4" points="241.79 169.91 265.5 169.94 265.47 168.61 267.33 168.61 267.33 171.55 289.99 171.58 290.02 177.21 306.02 177.21 306.02 171.93 307.36 171.93 307.34 208.89 241.85 208.83 241.79 169.91"/><polygon class="cls-4" points="241.77 255.13 265.56 255.1 265.53 256.34 267.39 256.34 267.39 253.36 290.06 253.33 290.04 247.76 306.17 247.76 306.17 252.91 307.37 252.91 307.38 216.27 241.86 216.24 241.77 255.13"/><polygon class="cls-5" points="307.4 217 344.6 217.05 344.6 212.34 374.04 212.34 373.94 225.77 374.69 225.77 374.69 226.99 366.59 226.96 366.59 232.97 372.28 232.98 372.33 252.09 364.37 252.09 364.37 253.18 362.42 253.18 362.42 248.39 348.21 248.39 348.25 252.94 307.36 252.91 307.4 217"/><polygon class="cls-5" points="307.36 207.84 344.6 207.79 344.6 212.34 374.04 212.34 373.94 199.07 374.69 199.07 374.69 197.85 366.59 197.88 366.59 191.87 372.28 191.86 372.33 172.75 364.37 172.75 364.37 171.66 362.42 171.66 362.42 176.45 348.21 176.43 348.21 171.85 307.36 171.93 307.36 207.84"/><polygon class="cls-6" points="0.09 255.03 0.15 226.42 3.25 226.42 3.32 212.42 52.69 212.55 52.67 216.98 61.09 217.03 61.16 256.07 52.62 256.01 52.71 257.35 51.33 257.38 51.36 251.97 35.98 251.97 36 253.06 34.67 253.13 34.67 245.01 20.72 244.91 20.7 254.96 0.09 255.03"/><polygon class="cls-6" points="0.09 169.81 0.15 198.7 3.25 198.7 3.32 212.42 52.69 212.55 52.7 207.75 61.09 207.81 61.16 168.89 52.62 168.95 52.71 167.77 51.33 167.75 51.36 172.88 35.98 172.88 36 171.78 34.67 171.71 34.67 180.12 20.72 180.21 20.7 169.88 0.09 169.81"/><path class="cls-7" d="M21,189.67H19.09v-1h5.08v1H22.23v5.71H21Z"/><path class="cls-7" d="M26.19,188.64v6.74H25v-6.74Z"/><path class="cls-7" d="M27.61,188.73a10.64,10.64,0,0,1,1.87-.13,3.05,3.05,0,0,1,2,.54,1.9,1.9,0,0,1,.66,1.49,2,2,0,0,1-.58,1.53,3,3,0,0,1-2.13.72,3.47,3.47,0,0,1-.6,0v2.54H27.61Zm1.21,3.14a2.48,2.48,0,0,0,.6,0c.92,0,1.48-.45,1.48-1.24s-.52-1.15-1.37-1.15a3.4,3.4,0,0,0-.71.06Z"/><path class="cls-7" d="M39.17,191.94c0,2.26-1.37,3.55-3.23,3.55a3.11,3.11,0,0,1-3.1-3.43,3.23,3.23,0,0,1,3.2-3.53A3.11,3.11,0,0,1,39.17,191.94Zm-5,.1c0,1.37.69,2.46,1.87,2.46s1.86-1.1,1.86-2.51-.63-2.47-1.86-2.47S34.14,190.65,34.14,192Z"/><path class="cls-7" d="M42.31,188.73a10.31,10.31,0,0,1,1.78-.13A3.2,3.2,0,0,1,46,189a1.42,1.42,0,0,1,.7,1.26,1.57,1.57,0,0,1-1.12,1.46v0A1.7,1.7,0,0,1,47,193.43a1.75,1.75,0,0,1-.65,1.39,3.75,3.75,0,0,1-2.5.63,11.73,11.73,0,0,1-1.5-.09Zm1.21,2.66h.63c.85,0,1.33-.4,1.33-1s-.48-.92-1.26-.92a3.35,3.35,0,0,0-.7.05Zm0,3.1a5.43,5.43,0,0,0,.65,0c.79,0,1.49-.3,1.49-1.13s-.68-1.1-1.53-1.1h-.61Z"/><path class="cls-7" d="M21,230.19H19.09v-1h5.08v1H22.23v5.71H21Z"/><path class="cls-7" d="M26.19,229.16v6.74H25v-6.74Z"/><path class="cls-7" d="M27.61,229.25a10.45,10.45,0,0,1,1.87-.14,3,3,0,0,1,2,.55,1.9,1.9,0,0,1,.66,1.49,2,2,0,0,1-.58,1.53,3,3,0,0,1-2.13.72,3.47,3.47,0,0,1-.6,0v2.54H27.61Zm1.21,3.14a2.48,2.48,0,0,0,.6.05c.92,0,1.48-.45,1.48-1.24s-.52-1.15-1.37-1.15a3.4,3.4,0,0,0-.71.06Z"/><path class="cls-7" d="M39.17,232.46c0,2.26-1.37,3.55-3.23,3.55a3.11,3.11,0,0,1-3.1-3.43,3.23,3.23,0,0,1,3.2-3.53A3.11,3.11,0,0,1,39.17,232.46Zm-5,.1c0,1.37.69,2.46,1.87,2.46s1.86-1.1,1.86-2.51S37.24,230,36,230,34.14,231.17,34.14,232.56Z"/><path class="cls-7" d="M42.31,229.25a10.15,10.15,0,0,1,1.78-.14,3.19,3.19,0,0,1,1.93.43,1.42,1.42,0,0,1,.7,1.26,1.57,1.57,0,0,1-1.12,1.46v0A1.7,1.7,0,0,1,47,234a1.75,1.75,0,0,1-.65,1.39,3.75,3.75,0,0,1-2.5.63,11.73,11.73,0,0,1-1.5-.09Zm1.21,2.66h.63c.85,0,1.33-.4,1.33-1S45,230,44.22,230a3.35,3.35,0,0,0-.7,0Zm0,3.1a5.43,5.43,0,0,0,.65,0c.79,0,1.49-.3,1.49-1.13s-.68-1.1-1.53-1.1h-.61Z"/><path class="cls-7" d="M81.2,189.67H79.28v-1h5.09v1H82.43v5.71H81.2Z"/><path class="cls-7" d="M86.39,188.64v6.74H85.16v-6.74Z"/><path class="cls-7" d="M87.8,188.73a10.86,10.86,0,0,1,1.88-.13,3.05,3.05,0,0,1,2,.54,1.9,1.9,0,0,1,.66,1.49,2,2,0,0,1-.58,1.53,3,3,0,0,1-2.13.72,3.47,3.47,0,0,1-.6,0v2.54H87.8ZM89,191.87a2.48,2.48,0,0,0,.6,0c.92,0,1.48-.45,1.48-1.24s-.52-1.15-1.37-1.15a3.4,3.4,0,0,0-.71.06Z"/><path class="cls-7" d="M99.37,191.94c0,2.26-1.37,3.55-3.23,3.55a3.11,3.11,0,0,1-3.1-3.43,3.23,3.23,0,0,1,3.2-3.53A3.11,3.11,0,0,1,99.37,191.94Zm-5,.1c0,1.37.69,2.46,1.87,2.46s1.86-1.1,1.86-2.51-.63-2.47-1.86-2.47S94.34,190.65,94.34,192Z"/><path class="cls-7" d="M103.85,193.47l-.58,1.91H102l2.16-6.74h1.57l2.19,6.74H106.6l-.61-1.91Zm1.93-.93-.53-1.66c-.13-.41-.24-.87-.34-1.26h0c-.1.39-.2.86-.32,1.26l-.52,1.66Z"/><path class="cls-7" d="M81.2,230.19H79.28v-1h5.09v1H82.43v5.71H81.2Z"/><path class="cls-7" d="M86.39,229.16v6.74H85.16v-6.74Z"/><path class="cls-7" d="M87.8,229.25a10.66,10.66,0,0,1,1.88-.14,3,3,0,0,1,2,.55,1.9,1.9,0,0,1,.66,1.49,2,2,0,0,1-.58,1.53,3,3,0,0,1-2.13.72,3.47,3.47,0,0,1-.6,0v2.54H87.8ZM89,232.39a2.48,2.48,0,0,0,.6.05c.92,0,1.48-.45,1.48-1.24s-.52-1.15-1.37-1.15a3.4,3.4,0,0,0-.71.06Z"/><path class="cls-7" d="M99.37,232.46c0,2.26-1.37,3.55-3.23,3.55a3.11,3.11,0,0,1-3.1-3.43,3.23,3.23,0,0,1,3.2-3.53A3.11,3.11,0,0,1,99.37,232.46Zm-5,.1c0,1.37.69,2.46,1.87,2.46s1.86-1.1,1.86-2.51S97.44,230,96.21,230,94.34,231.17,94.34,232.56Z"/><path class="cls-7" d="M103.85,234l-.58,1.91H102l2.16-6.74h1.57l2.19,6.74H106.6L106,234Zm1.93-.93-.53-1.66c-.13-.41-.24-.87-.34-1.26h0c-.1.39-.2.86-.32,1.26l-.52,1.66Z"/><path class="cls-7" d="M133.8,189.67h-1.92v-1H137v1H135v5.71H133.8Z"/><path class="cls-7" d="M139,188.64v6.74h-1.23v-6.74Z"/><path class="cls-7" d="M140.4,188.73a10.86,10.86,0,0,1,1.88-.13,3,3,0,0,1,2,.54,1.9,1.9,0,0,1,.66,1.49,2,2,0,0,1-.58,1.53,3,3,0,0,1-2.13.72,3.42,3.42,0,0,1-.59,0v2.54H140.4Zm1.22,3.14a2.39,2.39,0,0,0,.59,0c.92,0,1.48-.45,1.48-1.24s-.52-1.15-1.36-1.15a3.32,3.32,0,0,0-.71.06Z"/><path class="cls-7" d="M152,191.94c0,2.26-1.37,3.55-3.23,3.55a3.11,3.11,0,0,1-3.09-3.43,3.22,3.22,0,0,1,3.19-3.53A3.11,3.11,0,0,1,152,191.94Zm-5,.1c0,1.37.68,2.46,1.86,2.46s1.86-1.1,1.86-2.51-.63-2.47-1.86-2.47S146.94,190.65,146.94,192Z"/><path class="cls-7" d="M156.45,193.47l-.58,1.91H154.6l2.16-6.74h1.56l2.19,6.74h-1.32l-.61-1.91Zm1.92-.93-.53-1.66c-.13-.41-.24-.87-.34-1.26h0c-.11.39-.2.86-.33,1.26l-.51,1.66Z"/><path class="cls-7" d="M161.18,195.38v-.75l.77-.71c1.52-1.42,2.24-2.2,2.25-3.06a1,1,0,0,0-1.16-1.09,2.36,2.36,0,0,0-1.38.54l-.36-.87a3.21,3.21,0,0,1,2-.67,1.93,1.93,0,0,1,2.14,2c0,1.14-.82,2.06-2,3.11l-.57.49v0h2.67v1Z"/><path class="cls-7" d="M133.8,230.19h-1.92v-1H137v1H135v5.71H133.8Z"/><path class="cls-7" d="M139,229.16v6.74h-1.23v-6.74Z"/><path class="cls-7" d="M140.4,229.25a10.66,10.66,0,0,1,1.88-.14,3,3,0,0,1,2,.55,1.9,1.9,0,0,1,.66,1.49,2,2,0,0,1-.58,1.53,3,3,0,0,1-2.13.72,3.42,3.42,0,0,1-.59,0v2.54H140.4Zm1.22,3.14a2.39,2.39,0,0,0,.59.05c.92,0,1.48-.45,1.48-1.24s-.52-1.15-1.36-1.15a3.32,3.32,0,0,0-.71.06Z"/><path class="cls-7" d="M152,232.46c0,2.26-1.37,3.55-3.23,3.55a3.11,3.11,0,0,1-3.09-3.43,3.22,3.22,0,0,1,3.19-3.53A3.11,3.11,0,0,1,152,232.46Zm-5,.1c0,1.37.68,2.46,1.86,2.46s1.86-1.1,1.86-2.51S150,230,148.8,230,146.94,231.17,146.94,232.56Z"/><path class="cls-7" d="M156.45,234l-.58,1.91H154.6l2.16-6.74h1.56l2.19,6.74h-1.32l-.61-1.91Zm1.92-.93-.53-1.66c-.13-.41-.24-.87-.34-1.26h0c-.11.39-.2.86-.33,1.26l-.51,1.66Z"/><path class="cls-7" d="M161.18,235.9v-.75l.77-.71c1.52-1.42,2.24-2.2,2.25-3.06a1,1,0,0,0-1.16-1.09,2.36,2.36,0,0,0-1.38.54l-.36-.87a3.21,3.21,0,0,1,2-.67,1.93,1.93,0,0,1,2.14,2c0,1.14-.82,2.06-2,3.11l-.57.49v0h2.67v1Z"/><path class="cls-7" d="M200.75,189.67h-1.91v-1h5.08v1H202v5.71h-1.23Z"/><path class="cls-7" d="M205.94,188.64v6.74h-1.22v-6.74Z"/><path class="cls-7" d="M207.36,188.73a10.64,10.64,0,0,1,1.87-.13,3.05,3.05,0,0,1,2,.54,1.9,1.9,0,0,1,.66,1.49,2,2,0,0,1-.58,1.53,3,3,0,0,1-2.13.72,3.47,3.47,0,0,1-.6,0v2.54h-1.21Zm1.21,3.14a2.48,2.48,0,0,0,.6,0c.92,0,1.48-.45,1.48-1.24s-.52-1.15-1.37-1.15a3.4,3.4,0,0,0-.71.06Z"/><path class="cls-7" d="M218.92,191.94c0,2.26-1.37,3.55-3.23,3.55a3.11,3.11,0,0,1-3.1-3.43,3.23,3.23,0,0,1,3.2-3.53A3.11,3.11,0,0,1,218.92,191.94Zm-5,.1c0,1.37.69,2.46,1.87,2.46s1.86-1.1,1.86-2.51-.63-2.47-1.86-2.47S213.89,190.65,213.89,192Z"/><path class="cls-7" d="M226.88,195.18a4.26,4.26,0,0,1-1.74.3,3.18,3.18,0,0,1-3.44-3.39,3.39,3.39,0,0,1,3.6-3.56,3.87,3.87,0,0,1,1.64.3l-.27,1a3.27,3.27,0,0,0-1.32-.26A2.24,2.24,0,0,0,223,192a2.21,2.21,0,0,0,2.35,2.43,3.44,3.44,0,0,0,1.34-.25Z"/><path class="cls-7" d="M261.76,189.67h-1.92v-1h5.09v1H263v5.71h-1.23Z"/><path class="cls-7" d="M267,188.64v6.74h-1.23v-6.74Z"/><path class="cls-7" d="M268.36,188.73a10.86,10.86,0,0,1,1.88-.13,3.05,3.05,0,0,1,2,.54,1.9,1.9,0,0,1,.66,1.49,2,2,0,0,1-.58,1.53,3,3,0,0,1-2.13.72,3.47,3.47,0,0,1-.6,0v2.54h-1.22Zm1.22,3.14a2.48,2.48,0,0,0,.6,0c.92,0,1.48-.45,1.48-1.24s-.52-1.15-1.37-1.15a3.4,3.4,0,0,0-.71.06Z"/><path class="cls-7" d="M279.93,191.94c0,2.26-1.37,3.55-3.23,3.55a3.11,3.11,0,0,1-3.1-3.43,3.23,3.23,0,0,1,3.2-3.53A3.11,3.11,0,0,1,279.93,191.94Zm-5,.1c0,1.37.69,2.46,1.87,2.46s1.86-1.1,1.86-2.51-.63-2.47-1.86-2.47S274.9,190.65,274.9,192Z"/><path class="cls-7" d="M283.06,188.73a12.52,12.52,0,0,1,2-.13,4.1,4.1,0,0,1,2.75.77,3,3,0,0,1,1.05,2.48,3.49,3.49,0,0,1-1.05,2.68,4.5,4.5,0,0,1-3,.92,13.43,13.43,0,0,1-1.66-.09Zm1.23,5.71a4.58,4.58,0,0,0,.68,0,2.31,2.31,0,0,0,2.55-2.58,2.14,2.14,0,0,0-2.39-2.34,3.94,3.94,0,0,0-.84.07Z"/><path class="cls-7" d="M327.85,189.67h-1.92v-1H331v1h-1.94v5.71h-1.23Z"/><path class="cls-7" d="M333,188.64v6.74h-1.23v-6.74Z"/><path class="cls-7" d="M334.45,188.73a10.86,10.86,0,0,1,1.88-.13,3.05,3.05,0,0,1,2,.54,1.9,1.9,0,0,1,.66,1.49,2,2,0,0,1-.58,1.53,3,3,0,0,1-2.13.72,3.47,3.47,0,0,1-.6,0v2.54h-1.22Zm1.22,3.14a2.48,2.48,0,0,0,.6,0c.92,0,1.48-.45,1.48-1.24s-.52-1.15-1.37-1.15a3.4,3.4,0,0,0-.71.06Z"/><path class="cls-7" d="M346,191.94c0,2.26-1.37,3.55-3.23,3.55a3.11,3.11,0,0,1-3.1-3.43,3.23,3.23,0,0,1,3.2-3.53A3.11,3.11,0,0,1,346,191.94Zm-5,.1c0,1.37.69,2.46,1.87,2.46s1.86-1.1,1.86-2.51-.63-2.47-1.86-2.47S341,190.65,341,192Z"/><path class="cls-7" d="M352.92,192.39h-2.54v2h2.84v1h-4.07v-6.74h3.92v1h-2.69v1.74h2.54Z"/><path class="cls-7" d="M261.76,230.19h-1.92v-1h5.09v1H263v5.71h-1.23Z"/><path class="cls-7" d="M267,229.16v6.74h-1.23v-6.74Z"/><path class="cls-7" d="M268.36,229.25a10.66,10.66,0,0,1,1.88-.14,3,3,0,0,1,2,.55,1.9,1.9,0,0,1,.66,1.49,2,2,0,0,1-.58,1.53,3,3,0,0,1-2.13.72,3.47,3.47,0,0,1-.6,0v2.54h-1.22Zm1.22,3.14a2.48,2.48,0,0,0,.6.05c.92,0,1.48-.45,1.48-1.24s-.52-1.15-1.37-1.15a3.4,3.4,0,0,0-.71.06Z"/><path class="cls-7" d="M279.93,232.46c0,2.26-1.37,3.55-3.23,3.55a3.11,3.11,0,0,1-3.1-3.43,3.23,3.23,0,0,1,3.2-3.53A3.11,3.11,0,0,1,279.93,232.46Zm-5,.1c0,1.37.69,2.46,1.87,2.46s1.86-1.1,1.86-2.51S278,230,276.77,230,274.9,231.17,274.9,232.56Z"/><path class="cls-7" d="M283.06,229.25a12.42,12.42,0,0,1,2-.14,4.1,4.1,0,0,1,2.75.78,3,3,0,0,1,1.05,2.48,3.49,3.49,0,0,1-1.05,2.68,4.5,4.5,0,0,1-3,.92,13.43,13.43,0,0,1-1.66-.09Zm1.23,5.71a4.58,4.58,0,0,0,.68,0,2.31,2.31,0,0,0,2.55-2.58,2.14,2.14,0,0,0-2.39-2.34,3.94,3.94,0,0,0-.84.07Z"/><path class="cls-7" d="M327.85,230.19h-1.92v-1H331v1h-1.94v5.71h-1.23Z"/><path class="cls-7" d="M333,229.16v6.74h-1.23v-6.74Z"/><path class="cls-7" d="M334.45,229.25a10.66,10.66,0,0,1,1.88-.14,3,3,0,0,1,2,.55,1.9,1.9,0,0,1,.66,1.49,2,2,0,0,1-.58,1.53,3,3,0,0,1-2.13.72,3.47,3.47,0,0,1-.6,0v2.54h-1.22Zm1.22,3.14a2.48,2.48,0,0,0,.6.05c.92,0,1.48-.45,1.48-1.24s-.52-1.15-1.37-1.15a3.4,3.4,0,0,0-.71.06Z"/><path class="cls-7" d="M346,232.46c0,2.26-1.37,3.55-3.23,3.55a3.11,3.11,0,0,1-3.1-3.43,3.23,3.23,0,0,1,3.2-3.53A3.11,3.11,0,0,1,346,232.46Zm-5,.1c0,1.37.69,2.46,1.87,2.46s1.86-1.1,1.86-2.51-.63-2.47-1.86-2.47S341,231.17,341,232.56Z"/><path class="cls-7" d="M352.92,232.91h-2.54v2h2.84v1h-4.07v-6.74h3.92v1h-2.69v1.74h2.54Z"/><polygon class="cls-8" points="0.09 169.81 0.15 198.7 3.25 198.7 3.32 212.42 52.69 212.55 52.62 207.87 61.09 207.81 61.16 170.13 52.62 170.19 52.71 167.77 51.33 167.75 51.36 172.88 35.98 172.88 36 171.78 34.67 171.71 34.67 180.12 20.72 180.21 20.7 169.88 0.09 169.81"/><polyline class="cls-9" points="187.55 216.35 178.23 216.35 178.29 250.54"/><polyline class="cls-9" points="194.29 240.55 194.29 249.15 178.34 249.27 178.34 250.47 187.46 250.47 187.52 257.81 188.77 257.81 188.79 256.42 241.76 256.48 241.86 216.24"/><rect class="cls-9" x="197.26" y="220.05" width="7.4" height="10.85"/><rect class="cls-9" x="210" y="220.05" width="7.4" height="10.85"/><rect class="cls-9" x="222.94" y="220.05" width="7.4" height="10.85"/><polyline class="cls-9" points="229.43 219.24 233.15 219.27 233.23 234.67 194.35 234.61 194.29 219.18 198.13 219.22"/><rect class="cls-10" x="205.35" y="244.6" width="25.98" height="0.62"/><line class="cls-9" x1="206.3" y1="234.64" x2="206.3" y2="244.6"/><line class="cls-9" x1="208.05" y1="234.64" x2="208.05" y2="244.6"/><line class="cls-9" x1="209.76" y1="234.64" x2="209.76" y2="244.6"/><line class="cls-9" x1="211.51" y1="234.64" x2="211.51" y2="244.6"/><line class="cls-9" x1="213.22" y1="234.64" x2="213.22" y2="244.6"/><line class="cls-9" x1="214.97" y1="234.64" x2="214.97" y2="244.6"/><line class="cls-9" x1="216.63" y1="234.64" x2="216.63" y2="244.6"/><line class="cls-9" x1="218.39" y1="234.64" x2="218.39" y2="244.6"/><line class="cls-9" x1="220.14" y1="234.64" x2="220.14" y2="244.6"/><line class="cls-9" x1="221.9" y1="234.64" x2="221.9" y2="244.6"/><line class="cls-9" x1="223.6" y1="234.64" x2="223.6" y2="244.6"/><line class="cls-9" x1="225.36" y1="234.64" x2="225.36" y2="244.6"/><line class="cls-9" x1="227.06" y1="234.64" x2="227.06" y2="244.6"/><line class="cls-9" x1="228.82" y1="234.64" x2="228.82" y2="244.6"/><line class="cls-9" x1="230.48" y1="234.64" x2="230.48" y2="244.6"/><line class="cls-9" x1="206.25" y1="239.57" x2="230.57" y2="239.57"/><line class="cls-9" x1="206.3" y1="245.31" x2="206.3" y2="255.12"/><line class="cls-9" x1="208.05" y1="245.31" x2="208.05" y2="255.12"/><line class="cls-9" x1="209.76" y1="245.31" x2="209.76" y2="255.12"/><line class="cls-9" x1="211.51" y1="245.31" x2="211.51" y2="255.12"/><line class="cls-9" x1="213.22" y1="245.31" x2="213.22" y2="255.12"/><line class="cls-9" x1="214.97" y1="245.31" x2="214.97" y2="255.12"/><line class="cls-9" x1="216.63" y1="245.31" x2="216.63" y2="255.12"/><line class="cls-9" x1="218.39" y1="245.31" x2="218.39" y2="255.12"/><line class="cls-9" x1="220.14" y1="245.31" x2="220.14" y2="255.12"/><line class="cls-9" x1="221.9" y1="245.31" x2="221.9" y2="255.12"/><line class="cls-9" x1="223.6" y1="245.31" x2="223.6" y2="255.12"/><line class="cls-9" x1="225.36" y1="245.31" x2="225.36" y2="255.12"/><line class="cls-9" x1="227.06" y1="245.31" x2="227.06" y2="255.12"/><line class="cls-9" x1="228.82" y1="245.31" x2="228.82" y2="255.12"/><line class="cls-9" x1="230.48" y1="245.31" x2="230.48" y2="255.12"/><line class="cls-9" x1="206.25" y1="250.17" x2="230.57" y2="250.17"/><line class="cls-11" x1="452.31" y1="37.87" x2="452.31" y2="254.32"/><path d="M467.78,219.28l2.3.76v1l-7.31-2.5v-1.13l7.31-2.49v1l-2.3.78Zm-.74-2.41-2.1.73c-.48.16-.91.27-1.33.38v0c.42.11.87.22,1.32.37l2.11.71Z"/><path d="M470.08,212.79l-7.31,2.4v-1l3.6-1.14c1-.31,1.88-.58,2.74-.78v0a26.6,26.6,0,0,1-2.73-.83l-3.61-1.24v-1l7.31,2.62Z"/><path d="M469.52,209.19a.65.65,0,0,1-.69-.65.69.69,0,0,1,1.37,0A.63.63,0,0,1,469.52,209.19Z"/><path d="M468.93,204.51a3.27,3.27,0,0,0,.48-1.69c0-1-.51-1.52-1.25-1.52s-1.07.38-1.44,1.37c-.43,1.2-1.06,1.93-2.08,1.93a2.1,2.1,0,0,1-2-2.36,3.24,3.24,0,0,1,.36-1.61l.77.26a2.73,2.73,0,0,0-.35,1.38c0,1,.6,1.38,1.1,1.38.68,0,1-.45,1.41-1.45.47-1.24,1.07-1.86,2.15-1.86s2.11.82,2.11,2.55a3.81,3.81,0,0,1-.48,1.87Z"/><path d="M467.78,197.85l2.3.76v1l-7.31-2.5V196l7.31-2.5v1l-2.3.78Zm-.74-2.41-2.1.73c-.48.16-.91.27-1.33.38v0c.42.11.87.22,1.32.37l2.11.72Z"/><path d="M470.08,192.39h-7.31v-1l3.7-2.33a19.93,19.93,0,0,1,2.38-1.3l0,0c-1,.09-1.86.11-3,.11h-3.06v-.89h7.31v1l-3.71,2.32a19.9,19.9,0,0,1-2.44,1.35v0c.92-.06,1.8-.07,3-.07h3.12Z"/><path d="M463.57,183.86v2.23h-.8v-5.42h.8v2.24h6.51v1Z"/><path d="M467.78,179.49l2.3.76v1l-7.31-2.49V177.6l7.31-2.5v1l-2.3.78Zm-.74-2.41-2.1.73c-.48.16-.91.27-1.33.37v0a12.61,12.61,0,0,1,1.32.37l2.11.71Z"/><path d="M462.87,171.72a10.57,10.57,0,0,1-.15-1.81,3,3,0,0,1,.59-2.11,1.88,1.88,0,0,1,1.4-.58,1.92,1.92,0,0,1,1.86,1.37h0a1.83,1.83,0,0,1,1.48-1.06,11.85,11.85,0,0,0,2-.57v1a9.1,9.1,0,0,1-1.75.48c-1,.21-1.38.61-1.42,1.47v.89h3.17v.94Zm3.33-.94v-1c0-1-.56-1.64-1.39-1.64s-1.36.68-1.36,1.68a4.27,4.27,0,0,0,.08.93Z"/><path d="M466.35,159.6c2.51,0,3.85,1.53,3.85,3.4s-1.51,3.29-3.72,3.29-3.84-1.44-3.84-3.39S464.17,159.6,466.35,159.6Zm.11,5.69c1.57,0,3-.85,3-2.35s-1.38-2.34-3-2.34c-1.46,0-3,.76-3,2.33S464.86,165.29,466.46,165.29Z"/><path d="M468.93,158.49a3.2,3.2,0,0,0,.48-1.68c0-1-.51-1.53-1.25-1.53s-1.07.39-1.44,1.38c-.43,1.19-1.06,1.93-2.08,1.93a2.1,2.1,0,0,1-2-2.36,3.21,3.21,0,0,1,.36-1.61l.77.26a2.73,2.73,0,0,0-.35,1.38c0,1,.6,1.38,1.1,1.38.68,0,1-.45,1.41-1.46.47-1.23,1.07-1.85,2.15-1.85s2.11.82,2.11,2.55a3.77,3.77,0,0,1-.48,1.86Z"/><path d="M467.78,151.84l2.3.76v1l-7.31-2.5V150l7.31-2.49v1l-2.3.78Zm-.74-2.41-2.1.73c-.48.16-.91.27-1.33.38v0c.42.11.87.22,1.32.37l2.11.71Z"/><path d="M462.88,144.08a12,12,0,0,1-.16-2,4.22,4.22,0,0,1,.91-3,3.32,3.32,0,0,1,2.62-1,3.9,3.9,0,0,1,2.84,1.05,4.51,4.51,0,0,1,1.06,3.24,16.12,16.12,0,0,1-.09,1.72Zm6.46-1a6.31,6.31,0,0,0,.05-.95,2.8,2.8,0,0,0-3.1-3.11c-1.73,0-2.83,1-2.83,3a5.47,5.47,0,0,0,.1,1.1Z"/><path d="M466.65,133.07v2.84h2.64v-3.17h.79v4.12h-7.31v-4h.79v3h2.31v-2.84Z"/><path d="M466.87,123.05c-1,0-2.26.12-3.16.12v0c.85.26,1.77.55,2.78.92L470,125.4v.72l-3.48,1.19c-1.05.35-2,.63-2.85.83v0c.91,0,2.13.07,3.24.14l3.13.19v.9l-7.31-.51v-1.2l3.54-1.25c.9-.3,1.7-.54,2.46-.74v0c-.74-.19-1.54-.45-2.46-.78l-3.54-1.3v-1.21l7.31-.45v.93Z"/><path d="M466.35,114.23c2.51,0,3.85,1.53,3.85,3.4s-1.51,3.28-3.72,3.28-3.84-1.43-3.84-3.38S464.17,114.23,466.35,114.23Zm.11,5.69c1.57,0,3-.85,3-2.35s-1.38-2.34-3-2.34c-1.46,0-3,.76-3,2.33S464.86,119.92,466.46,119.92Z"/><path d="M462.77,113v-1h6.52v-3.13h.79V113Z"/><path d="M462.77,107.89v-1h6.52v-3.12h.79v4.08Z"/><path d="M466.65,99v2.83h2.64V98.64h.79v4.13h-7.31v-4h.79v3h2.31V99Z"/><path d="M469,95.22a3.32,3.32,0,0,0,.43-1.56c0-1.21-.77-1.6-1.37-1.59-1,0-1.41.9-1.41,1.82v.53h-.71v-.53c0-.7-.36-1.58-1.2-1.58-.56,0-1.06.36-1.06,1.24a2.54,2.54,0,0,0,.47,1.41l-.7.26a3.41,3.41,0,0,1-.54-1.85c0-1.39.83-2,1.68-2a1.75,1.75,0,0,1,1.67,1.3h0a1.82,1.82,0,0,1,1.8-1.57c1.12,0,2.11.89,2.11,2.57a3.53,3.53,0,0,1-.48,1.83Z"/><path d="M469.41,89.33a4.29,4.29,0,0,0,0-.77,2.65,2.65,0,0,0-.69-1.48,3.11,3.11,0,0,0-1.86-.93v0a2.1,2.1,0,0,1,.75,1.67,2,2,0,0,1-2.16,2.08,2.42,2.42,0,0,1-2.51-2.41c0-1.45,1.16-2.34,3-2.34a4.47,4.47,0,0,1,3.3,1.22,3.55,3.55,0,0,1,.95,2,4.83,4.83,0,0,1,.05.88ZM465.36,89a1.36,1.36,0,0,0,1.5-1.35,1.59,1.59,0,0,0-.74-1.39.62.62,0,0,0-.36-.09c-1.2,0-2.12.45-2.12,1.45C463.64,88.41,464.35,89,465.36,89Z"/><path d="M470.08,81.36h-1.93v3.28h-.62L463,81.49v-1h4.38v-1h.74v1h1.93Zm-2.67,0h-2.35q-.56,0-1.11,0v0c.41.22.72.39,1,.59l2.4,1.72h0Z"/><path d="M466.37,77.44a1.73,1.73,0,0,1-1.58,1.13,2,2,0,0,1-1.88-2.19,1.82,1.82,0,0,1,1.74-2.06,1.8,1.8,0,0,1,1.65,1.17h0a2,2,0,0,1,1.82-1.42,2.16,2.16,0,0,1,2.05,2.4c0,1.47-.87,2.36-1.9,2.36a2,2,0,0,1-1.9-1.4Zm-1.65.22c.71,0,1.09-.53,1.3-1.34a1.39,1.39,0,0,0-1.28-1.08,1.1,1.1,0,0,0-1.15,1.19A1.13,1.13,0,0,0,464.72,77.66ZM468.25,75c-.85,0-1.27.59-1.54,1.55a1.55,1.55,0,0,0,1.46,1.27,1.3,1.3,0,0,0,1.34-1.41A1.27,1.27,0,0,0,468.25,75Z"/><line class="cls-12" x1="347.86" y1="134.71" x2="415.8" y2="134.9"/><line class="cls-12" x1="347.86" y1="102.25" x2="415.17" y2="102.44"/><line class="cls-12" x1="348.49" y1="69.94" x2="414.42" y2="70.13"/><line class="cls-12" x1="348.08" y1="167.24" x2="416.44" y2="167.43"/><path class="cls-13" d="M429.87,12.19l.29.87L427,17.84l-.6.71v0l5-1.73.34,1-6.61,2.27-.29-.87L428,14.43l.59-.7h0l-5,1.72-.34-1Z"/><polygon class="cls-13" points="437.3 10.04 435.74 12.48 438.5 13.38 438.03 12.08 442.75 10.39 442.49 9.65 437.77 11.34 437.3 10.04"/><path class="cls-14" d="M435.18,3.83a9.69,9.69,0,1,0,14.89,12.4,9.6,9.6,0,0,0,2.2-7.08,9.52,9.52,0,0,0-.52-2.39,9.7,9.7,0,0,0-10-6.38A9.65,9.65,0,0,0,435.18,3.83Z"/></g></g></svg>